<?xml version="1.0" encoding="UTF-8"?>
<svg version="1.1" xmlns="http://www.w3.org/2000/svg" width="1184" height="864">
<path d="M0 0 C2.26490337 3.39735506 2.49835662 5.41987398 3 9.4375 C3.144375 10.57058594 3.28875 11.70367187 3.4375 12.87109375 C3.51943604 13.52070068 3.60137207 14.17030762 3.68579102 14.83959961 C3.90306235 16.33348777 4.16159561 17.82174201 4.45288086 19.30297852 C6.59079621 30.4350232 6.91856631 41.76856651 7.5625 53.0625 C7.74987539 56.30368541 7.93913499 59.5447203 8.13328552 62.7855072 C8.25320282 64.79076703 8.36912909 66.79627046 8.48060608 68.80201721 C8.53413742 69.70403366 8.58766876 70.60605011 8.64282227 71.53540039 C8.71038475 72.72354088 8.71038475 72.72354088 8.77931213 73.9356842 C8.94660624 76.1958032 8.94660624 76.1958032 10 79 C10.53328625 84.21411098 10.78064356 89.45438504 11.0625 94.6875 C11.12928452 95.9101355 11.12928452 95.9101355 11.19741821 97.1574707 C12.11681984 114.70636842 12.19335522 132.25794874 12.18803024 149.82584 C12.18750072 151.99704425 12.18867448 154.16824318 12.18997192 156.33944702 C12.19112187 160.45551105 12.18087912 164.57145534 12.16796875 168.6875 C12.16677032 169.92768387 12.1655719 171.16786774 12.16433716 172.44563293 C12.13368266 178.07652138 11.91107711 183.43187941 11 189 C10.80490397 191.74692501 10.63536608 194.48482833 10.5 197.234375 C10.41670962 198.79297105 10.33337501 200.35156473 10.25 201.91015625 C10.12371839 204.34157053 9.99882621 206.77304929 9.875 209.20458984 C9.75348644 211.56888292 9.62697042 213.93286966 9.5 216.296875 C9.46455078 217.02501404 9.42910156 217.75315308 9.39257812 218.50335693 C9.22735986 221.5520144 8.97114708 224.08655876 8 227 C7.69301138 230.38540224 7.49095405 233.77135062 7.28125 237.1640625 C7 240 7 240 6 241 C5.77285996 242.63066766 5.60544914 244.26976003 5.46484375 245.91015625 C5.37783203 246.89951172 5.29082031 247.88886719 5.20117188 248.90820312 C5.11416016 249.94912109 5.02714844 250.99003906 4.9375 252.0625 C4.84662109 253.10728516 4.75574219 254.15207031 4.66210938 255.22851562 C4.43739092 257.8186915 4.2168769 260.40915767 4 263 C3.34 263 2.68 263 2 263 C2.0309375 264.9490625 2.0309375 264.9490625 2.0625 266.9375 C2.08399454 268.29165633 2.07148199 269.64756083 2 271 C1.67 271.33 1.34 271.66 1 272 C0.66397402 273.31279832 0.37225965 274.63703506 0.1015625 275.96484375 C-0.9504187 280.89002845 -2.25339853 285.7180355 -3.625 290.5625 C-3.85445312 291.38041016 -4.08390625 292.19832031 -4.3203125 293.04101562 C-4.8780488 295.0279512 -5.43871096 297.01406511 -6 299 C-6.66 299 -7.32 299 -8 299 C-7.87625 300.2684375 -7.87625 300.2684375 -7.75 301.5625 C-8.00833188 305.11456333 -8.91156649 306.71380558 -10.77734375 309.65625 C-13.60941282 315.0851364 -15.17027428 321.17337343 -17 327 C-17.66 327 -18.32 327 -19 327 C-19.33 328.32 -19.66 329.64 -20 331 C-20.66 331 -21.32 331 -22 331 C-22.11601563 331.86753906 -22.23203125 332.73507812 -22.3515625 333.62890625 C-23.00222457 337.01156508 -24.00730076 339.78350267 -25.375 342.9375 C-26.04208984 344.49017578 -26.04208984 344.49017578 -26.72265625 346.07421875 C-27.35494141 347.52248047 -27.35494141 347.52248047 -28 349 C-28.6049636 350.41632654 -29.20930308 351.83292016 -29.8125 353.25 C-30.4003125 354.61125 -30.4003125 354.61125 -31 356 C-31.66 356 -32.32 356 -33 356 C-33 356.99 -33 357.98 -33 359 C-33.66 359 -34.32 359 -35 359 C-35.66 361.31 -36.32 363.62 -37 366 C-37.66 366 -38.32 366 -39 366 C-39 366.99 -39 367.98 -39 369 C-39.66 369 -40.32 369 -41 369 C-41.33 370.32 -41.66 371.64 -42 373 C-42.66 373 -43.32 373 -44 373 C-44.33 374.32 -44.66 375.64 -45 377 C-45.66 377 -46.32 377 -47 377 C-47.0825 377.556875 -47.165 378.11375 -47.25 378.6875 C-48.23895541 381.73677919 -49.84757466 383.65189963 -52 386 C-52.66 386 -53.32 386 -54 386 C-54 386.99 -54 387.98 -54 389 C-54.66 389 -55.32 389 -56 389 C-56.33 390.32 -56.66 391.64 -57 393 C-57.66 393 -58.32 393 -59 393 C-59.1546875 393.8971875 -59.1546875 393.8971875 -59.3125 394.8125 C-60.09824033 397.31258286 -60.96918853 398.37535082 -63 400 C-63.66 400 -64.32 400 -65 400 C-65.268125 400.5775 -65.53625 401.155 -65.8125 401.75 C-67.02929189 404.05550043 -68.30333879 406.02056192 -70 408 C-70.66 408 -71.32 408 -72 408 C-72.268125 408.556875 -72.53625 409.11375 -72.8125 409.6875 C-74.10899496 412.21225334 -75.42476323 414.63714484 -77 417 C-77.66 417 -78.32 417 -79 417 C-79 417.66 -79 418.32 -79 419 C-79.598125 419.268125 -80.19625 419.53625 -80.8125 419.8125 C-84.31088537 421.71162349 -85.73345454 423.20036361 -87 427 C-88.390625 428.4375 -88.390625 428.4375 -90.25 430 C-90.96671875 430.60714844 -91.6834375 431.21429687 -92.421875 431.83984375 C-93.27265625 432.55269531 -94.1234375 433.26554687 -95 434 C-96.04775563 434.89610679 -97.09457708 435.7933066 -98.140625 436.69140625 C-103.34603236 441.14838356 -108.54648521 445.56436454 -114.09765625 449.58984375 C-115.52848429 450.65047809 -116.92720949 451.75463243 -118.30859375 452.87890625 C-119.09363281 453.51699219 -119.87867188 454.15507813 -120.6875 454.8125 C-121.39261719 455.39644531 -122.09773437 455.98039062 -122.82421875 456.58203125 C-125.23755733 458.15481743 -127.16577188 458.61780111 -130 459 C-130 459.66 -130 460.32 -130 461 C-131.65 461.33 -133.3 461.66 -135 462 C-135 462.66 -135 463.32 -135 464 C-136.16015625 464.56267578 -136.16015625 464.56267578 -137.34375 465.13671875 C-142.74039585 467.78828856 -147.95213386 470.49381789 -152.98828125 473.77734375 C-156.13842335 475.69189613 -159.46429449 477.22819428 -162.80078125 478.7890625 C-165.01235022 479.86093265 -165.01235022 479.86093265 -166.41015625 481.4921875 C-168.69843554 483.66239832 -171.1788371 484.41347184 -174.125 485.5 C-175.27613281 485.92667969 -176.42726563 486.35335938 -177.61328125 486.79296875 C-181.72442866 488.25818738 -185.84566974 489.66216483 -190 491 C-190 491.66 -190 492.32 -190 493 C-195.57396892 495.41453032 -201.14121429 497.3846674 -207 499 C-212.05794433 500.39737357 -216.85013132 502.03954552 -221.69140625 504.05078125 C-227.47524163 506.42890646 -232.64469142 508.48886989 -239 508 C-239 508.66 -239 509.32 -239 510 C-256.86736251 514.22605384 -256.86736251 514.22605384 -265.58203125 514.79296875 C-268.0168767 515.00144502 -270.30034132 515.42061109 -272.6875 515.9375 C-291.50952508 519.90939191 -310.84330628 520.20379461 -330 520 C-328.52105369 512.02265325 -326.94681843 505.10427318 -323 498 C-322.63047023 496.67624147 -322.28756938 495.3439467 -322 494 C-321.34 494 -320.68 494 -320 494 C-319.9175 493.21625 -319.835 492.4325 -319.75 491.625 C-317.83749299 482.38121611 -313.38172541 472.86123027 -308 465.125 C-305.47682478 461.18253873 -303.86440659 457.05160268 -302.1484375 452.70703125 C-301 450 -301 450 -299 447 C-298.45927731 445.55627042 -297.96184105 444.09586334 -297.5 442.625 C-296.45026322 439.35856017 -295.32790059 436.16653218 -294 433 C-293.34 433 -292.68 433 -292 433 C-291.896875 432.29875 -291.79375 431.5975 -291.6875 430.875 C-290.15127066 424.45076822 -286.1948761 418.51842083 -283.125 412.6875 C-282.49271484 411.4819043 -282.49271484 411.4819043 -281.84765625 410.25195312 C-279.32484403 405.4570669 -276.74165826 400.70157551 -274.09863281 395.97192383 C-272.81128496 393.66127747 -271.56110113 391.33177245 -270.3125 389 C-266.07297931 381.21846331 -261.54071804 373.60833644 -257 366 C-256.6198877 365.3611084 -256.23977539 364.7222168 -255.84814453 364.06396484 C-249.41520369 353.28498544 -249.41520369 353.28498544 -246.1875 349.625 C-243.66593583 346.59912299 -242.45721597 343.64303992 -241 340 C-239.4375 337.0625 -239.4375 337.0625 -238 335 C-237.34 335 -236.68 335 -236 335 C-235.938125 334.443125 -235.87625 333.88625 -235.8125 333.3125 C-234.87710245 330.65021468 -233.46769535 329.55139364 -231.44921875 327.66015625 C-228.92802063 324.77199129 -227.36709932 321.33634743 -225.59375 317.95703125 C-222.99375652 313.13302374 -219.99885497 308.58280133 -217 304 C-216.28972656 302.89140625 -215.57945312 301.7828125 -214.84765625 300.640625 C-214.13480469 299.54234375 -213.42195312 298.4440625 -212.6875 297.3125 C-212.03136719 296.29800781 -211.37523437 295.28351563 -210.69921875 294.23828125 C-210.13847656 293.49964844 -209.57773437 292.76101563 -209 292 C-208.34 292 -207.68 292 -207 292 C-206.690625 291.21625 -206.38125 290.4325 -206.0625 289.625 C-205 287 -205 287 -204 285 C-203.34 285 -202.68 285 -202 285 C-201.69255859 284.01580078 -201.69255859 284.01580078 -201.37890625 283.01171875 C-199.46324959 278.82766412 -196.74399251 275.43960435 -193.9375 271.8125 C-192.84113597 270.38251533 -191.74602235 268.95157083 -190.65234375 267.51953125 C-190.16757568 266.89151611 -189.68280762 266.26350098 -189.18334961 265.61645508 C-187.92917771 263.99792431 -187.92917771 263.99792431 -187 262 C-186.34 262 -185.68 262 -185 262 C-184.67515625 260.98679687 -184.67515625 260.98679687 -184.34375 259.953125 C-182.58284822 256.08323619 -180.15066272 253.0513422 -177.5 249.75 C-177.00113281 249.11320313 -176.50226562 248.47640625 -175.98828125 247.8203125 C-172.26989638 243.13494819 -172.26989638 243.13494819 -170 242 C-169.27840576 240.35636866 -168.60648579 238.68949614 -168 237 C-167.34 237 -166.68 237 -166 237 C-165.7421875 236.44828125 -165.484375 235.8965625 -165.21875 235.328125 C-163.82036875 232.65685825 -162.21236695 230.23148091 -160.5 227.75 C-159.8915625 226.85796875 -159.283125 225.9659375 -158.65625 225.046875 C-158.1096875 224.37140625 -157.563125 223.6959375 -157 223 C-156.34 223 -155.68 223 -155 223 C-154.67 221.68 -154.34 220.36 -154 219 C-153.34 219 -152.68 219 -152 219 C-151.7525 218.195625 -151.505 217.39125 -151.25 216.5625 C-150.63125 215.2940625 -150.63125 215.2940625 -150 214 C-149.34 213.855625 -148.68 213.71125 -148 213.5625 C-147.01 213.2840625 -147.01 213.2840625 -146 213 C-145.31875294 211.00491933 -144.65572791 209.00361307 -144 207 C-142.20193102 204.17083496 -140.2904148 201.45223759 -138 199 C-137.34 199 -136.68 199 -136 199 C-135.731875 198.2575 -135.46375 197.515 -135.1875 196.75 C-134.04723249 194.10938051 -132.90619694 192.14447156 -131 190 C-130.34 190 -129.68 190 -129 190 C-128.731875 189.2575 -128.46375 188.515 -128.1875 187.75 C-127.04723249 185.10938051 -125.90619694 183.14447156 -124 181 C-123.34 181 -122.68 181 -122 181 C-121.731875 180.2575 -121.46375 179.515 -121.1875 178.75 C-120.04723249 176.10938051 -118.90619694 174.14447156 -117 172 C-116.34 172 -115.68 172 -115 172 C-114.34 170.35 -113.68 168.7 -113 167 C-113.83144531 167.42152344 -114.66289063 167.84304688 -115.51953125 168.27734375 C-117.14955078 169.09912109 -117.14955078 169.09912109 -118.8125 169.9375 C-119.89144531 170.48277344 -120.97039063 171.02804687 -122.08203125 171.58984375 C-125 173 -125 173 -128 174 C-128.33 174.99 -128.66 175.98 -129 177 C-131.109375 178.7890625 -131.109375 178.7890625 -133.75 180.625 C-135.04164063 181.54152344 -135.04164063 181.54152344 -136.359375 182.4765625 C-138.98682579 183.99239949 -141.0146246 184.60266586 -144 185 C-144.33 185.99 -144.66 186.98 -145 188 C-148.0625 189.1875 -148.0625 189.1875 -151 190 C-151 190.66 -151 191.32 -151 192 C-152.3882428 192.94806826 -153.7828048 193.88814838 -155.20703125 194.78125 C-157.83679331 196.56880068 -160.13563969 198.69098747 -162.484375 200.828125 C-164 202 -164 202 -166 202 C-166 202.66 -166 203.32 -166 204 C-167.65 204.66 -169.3 205.32 -171 206 C-171 206.66 -171 207.32 -171 208 C-171.66 208 -172.32 208 -173 208 C-173 208.66 -173 209.32 -173 210 C-173.66 210 -174.32 210 -175 210 C-175 210.66 -175 211.32 -175 212 C-175.804375 212.474375 -176.60875 212.94875 -177.4375 213.4375 C-180.2918076 214.79983672 -180.2918076 214.79983672 -181 218 C-185.33333333 221 -185.33333333 221 -188 221 C-188 221.66 -188 222.32 -188 223 C-188.66 223 -189.32 223 -190 223 C-190 223.66 -190 224.32 -190 225 C-191.609375 226.55078125 -191.609375 226.55078125 -193.75 228.3125 C-196.91874705 230.99674618 -199.43514724 233.72760165 -202 237 C-202.763125 237.598125 -203.52625 238.19625 -204.3125 238.8125 C-208.70384948 242.38685423 -213.18611788 246.55835365 -215 252 C-215.66 252 -216.32 252 -217 252 C-217.66 253.32 -218.32 254.64 -219 256 C-219.99 256 -220.98 256 -222 256 C-222.309375 256.61875 -222.61875 257.2375 -222.9375 257.875 C-223.625 259.25 -224.3125 260.625 -225 262 C-225.66 262 -226.32 262 -227 262 C-227 262.66 -227 263.32 -227 264 C-227.66 264 -228.32 264 -229 264 C-229.28875 264.5775 -229.5775 265.155 -229.875 265.75 C-230.24625 266.4925 -230.6175 267.235 -231 268 C-231.309375 268.680625 -231.61875 269.36125 -231.9375 270.0625 C-233.06603899 272.12042404 -234.3477988 273.3477988 -236 275 C-236.515625 275.886875 -237.03125 276.77375 -237.5625 277.6875 C-238.2740625 278.8321875 -238.2740625 278.8321875 -239 280 C-239.66 280 -240.32 280 -241 280 C-241.4021875 280.86625 -241.4021875 280.86625 -241.8125 281.75 C-243.0388622 284.07363365 -244.24843434 286.03824646 -246 288 C-246.99 288 -247.98 288 -249 288 C-249.33 289.32 -249.66 290.64 -250 292 C-250.66 292 -251.32 292 -252 292 C-252 292.99 -252 293.98 -252 295 C-252.66 295 -253.32 295 -254 295 C-254.33 296.65 -254.66 298.3 -255 300 C-255.99 300 -256.98 300 -258 300 C-258.268125 300.53625 -258.53625 301.0725 -258.8125 301.625 C-259.204375 302.40875 -259.59625 303.1925 -260 304 C-260.433125 304.969375 -260.86625 305.93875 -261.3125 306.9375 C-263.14632087 310.26554528 -265.2915698 312.35928055 -268 315 C-268.556875 315.928125 -269.11375 316.85625 -269.6875 317.8125 C-270.120625 318.534375 -270.55375 319.25625 -271 320 C-271.66 320 -272.32 320 -273 320 C-273.33 321.65 -273.66 323.3 -274 325 C-274.66 325 -275.32 325 -276 325 C-276.28875 325.721875 -276.5775 326.44375 -276.875 327.1875 C-277.91666667 329.79166667 -278.95833333 332.39583333 -280 335 C-280.66 335 -281.32 335 -282 335 C-282.103125 335.598125 -282.20625 336.19625 -282.3125 336.8125 C-283 339 -283 339 -284.421875 340.3828125 C-286.64665037 342.66265657 -287.59343862 345.262669 -288.83984375 348.16015625 C-290 350 -290 350 -292.05078125 351.01953125 C-294.45237266 351.94338835 -294.45237266 351.94338835 -295.25 355.625 C-295.4975 356.73875 -295.745 357.8525 -296 359 C-296.66 359 -297.32 359 -298 359 C-298.28875 359.9075 -298.5775 360.815 -298.875 361.75 C-299.76531776 364.32202908 -300.71494413 366.61346766 -302 369 C-302.66 369 -303.32 369 -304 369 C-304.309375 369.78375 -304.61875 370.5675 -304.9375 371.375 C-306 374 -306 374 -307 376 C-307.66 376 -308.32 376 -309 376 C-309.103125 376.721875 -309.20625 377.44375 -309.3125 378.1875 C-310.07095686 381.29027805 -311.35093089 383.27269339 -313 386 C-313.80333059 387.95863593 -314.52247006 389.93753572 -315.23828125 391.9296875 C-316.37095386 395.00823358 -317.68540013 397.99520029 -319 401 C-319.66 401 -320.32 401 -321 401 C-321.66 403.31 -322.32 405.62 -323 408 C-323.66 408 -324.32 408 -325 408 C-325.12375 408.7425 -325.2475 409.485 -325.375 410.25 C-325.95486701 412.80141485 -326.73708739 414.7267573 -328 417 C-328.66 417 -329.32 417 -330 417 C-330.23783203 417.94359375 -330.23783203 417.94359375 -330.48046875 418.90625 C-331.92767301 424.21533082 -333.68356056 428.44734478 -336.7421875 433.0078125 C-338.9280548 436.46990046 -340.41598281 440.23471324 -342 444 C-344.58638196 450.03489123 -347.43876297 455.90466856 -350.42626953 461.74975586 C-352.62465321 466.10208149 -354.42810099 470.49050737 -355.98046875 475.109375 C-357.26016509 477.48245173 -358.53034427 478.03872613 -361 479 C-365 472.375 -365 472.375 -365 469 C-365.66 469 -366.32 469 -367 469 C-368.76462683 465.91190305 -369 464.76687864 -369 461 C-369.66 461 -370.32 461 -371 461 C-371.20753906 460.35675781 -371.41507813 459.71351563 -371.62890625 459.05078125 C-373.93780817 452.27864632 -376.93167962 446.19521293 -380.39453125 439.94140625 C-382.17948488 436.67116275 -383.64075163 433.46608335 -385 430 C-385.27714844 429.29875 -385.55429687 428.5975 -385.83984375 427.875 C-388 422.30040323 -388 422.30040323 -388 420 C-388.66 420 -389.32 420 -390 420 C-390.53109375 418.99839844 -391.0621875 417.99679687 -391.609375 416.96484375 C-392.32285987 415.62236564 -393.03640475 414.27991943 -393.75 412.9375 C-394.09804688 412.28072266 -394.44609375 411.62394531 -394.8046875 410.94726562 C-396.55440874 407.65843774 -398.33733682 404.40305995 -400.21875 401.1875 C-401.82656139 398.31036384 -402.60756279 396.23760696 -403 393 C-403.66 393 -404.32 393 -405 393 C-405.4125 392.01 -405.825 391.02 -406.25 390 C-407.44655248 387.22309518 -408.68820907 384.47448886 -410 381.75 C-410.4640625 380.78320312 -410.4640625 380.78320312 -410.9375 379.796875 C-412.07790406 377.86825049 -413.38962163 376.54526873 -415 375 C-416.58913558 372.32356113 -417 371.1819944 -417 368 C-417.66 368 -418.32 368 -419 368 C-419.33 366.35 -419.66 364.7 -420 363 C-420.66 363 -421.32 363 -422 363 C-422.40992188 362.12472656 -422.81984375 361.24945312 -423.2421875 360.34765625 C-425.48153016 356.08295255 -428.31570411 352.48246996 -431.2578125 348.68359375 C-432.99654043 346.00532897 -433.62529293 344.13959103 -434 341 C-434.66 341 -435.32 341 -436 341 C-436.7734375 339.5459375 -436.7734375 339.5459375 -437.5625 338.0625 C-439.32181253 334.95857004 -441.33453973 332.22245034 -443.5625 329.4375 C-445.56348506 326.93309586 -447.08289125 324.8307637 -448.5 321.9375 C-450.34174938 318.33074079 -452.79361343 315.75080329 -455.57421875 312.83203125 C-457 311 -457 311 -457 308 C-457.66 308 -458.32 308 -459 308 C-461.17204 305.03812728 -462.83561997 302.49314009 -464 299 C-464.66 299 -465.32 299 -466 299 C-466.0825 298.21625 -466.165 297.4325 -466.25 296.625 C-466.4975 295.75875 -466.745 294.8925 -467 294 C-467.56074219 293.75894531 -468.12148438 293.51789063 -468.69921875 293.26953125 C-472.22516816 291.32397343 -474.17551349 288.24836998 -476.5625 285.0625 C-477.52035454 283.80203011 -478.47993606 282.54287035 -479.44140625 281.28515625 C-479.86107666 280.72707275 -480.28074707 280.16898926 -480.71313477 279.59399414 C-481.98350586 277.93872374 -481.98350586 277.93872374 -483.65991211 276.48217773 C-485 275 -485 275 -485 272 C-485.66 272 -486.32 272 -487 272 C-487 271.34 -487 270.68 -487 270 C-487.99 269.67 -488.98 269.34 -490 269 C-490 268.01 -490 267.02 -490 266 C-490.61875 265.7525 -491.2375 265.505 -491.875 265.25 C-494.40358627 263.76259631 -494.71839004 262.56321991 -496 260 C-496.59296875 259.73574219 -497.1859375 259.47148438 -497.796875 259.19921875 C-501.61952857 257.1184481 -503.78012981 253.42556055 -506.390625 250.01953125 C-508.99967445 247.00037672 -511.74468518 244.54365462 -514.77001953 241.96118164 C-518.96793349 238.26927855 -522.8702508 234.27321407 -526.8125 230.3125 C-527.65748047 229.47138672 -528.50246094 228.63027344 -529.37304688 227.76367188 C-530.18451172 226.95091797 -530.99597656 226.13816406 -531.83203125 225.30078125 C-532.56139893 224.57028564 -533.2907666 223.83979004 -534.04223633 223.0871582 C-536 221 -536 221 -537.5925293 218.83276367 C-539.37352172 216.51361187 -541.50887869 215.48120727 -544 214 C-544 213.34 -544 212.68 -544 212 C-544.66 212 -545.32 212 -546 212 C-547.68762851 210.3545622 -549.3540349 208.68711423 -551 207 C-551.66 206.67 -552.32 206.34 -553 206 C-553 205.34 -553 204.68 -553 204 C-553.556875 203.896875 -554.11375 203.79375 -554.6875 203.6875 C-558.97486493 202.41287799 -561.51792535 200.72311198 -564 197 C-564.99 196.67 -565.98 196.34 -567 196 C-567 195.34 -567 194.68 -567 194 C-567.58394531 193.72671875 -568.16789063 193.4534375 -568.76953125 193.171875 C-570.94988918 192.02632793 -572.74833433 190.7623053 -574.6875 189.25 C-578.4311385 186.373532 -582.31630572 183.80799708 -586.3125 181.296875 C-586.869375 180.86890625 -587.42625 180.4409375 -588 180 C-588 179.34 -588 178.68 -588 178 C-588.66 178 -589.32 178 -590 178 C-590 177.34 -590 176.68 -590 176 C-590.99 176 -591.98 176 -593 176 C-593 175.34 -593 174.68 -593 174 C-594.010625 173.95875 -595.02125 173.9175 -596.0625 173.875 C-600.24544813 173.30882318 -602.35670069 171.25636188 -605.35546875 168.43359375 C-607.38879795 166.66107162 -609.43067067 165.77858464 -612 165 C-611.34 165.99 -610.68 166.98 -610 168 C-610 168.99 -610 169.98 -610 171 C-609.34 171 -608.68 171 -608 171 C-608 171.66 -608 172.32 -608 173 C-607.41089844 173.23074219 -606.82179688 173.46148437 -606.21484375 173.69921875 C-603.43586558 175.33131704 -602.3113525 177.11854014 -600.5625 179.8125 C-598.56896099 182.79421568 -596.69687954 185.49770531 -594.0625 187.9375 C-593.381875 188.618125 -592.70125 189.29875 -592 190 C-592 190.99 -592 191.98 -592 193 C-591.0409375 193.37125 -591.0409375 193.37125 -590.0625 193.75 C-588 195 -588 195 -587.25 197.125 C-587.1675 197.74375 -587.085 198.3625 -587 199 C-586.34 199 -585.68 199 -585 199 C-583.23346261 201.06850959 -581.57660852 203.14621572 -579.9375 205.3125 C-578.94758609 206.59840472 -577.95668679 207.88355142 -576.96484375 209.16796875 C-576.46839355 209.8129834 -575.97194336 210.45799805 -575.46044922 211.12255859 C-572.67208771 214.7070621 -569.76851598 218.19543471 -566.875 221.6953125 C-566.25625 222.45585937 -565.6375 223.21640625 -565 224 C-564.4225 224.69867188 -563.845 225.39734375 -563.25 226.1171875 C-562 228 -562 228 -562 231 C-561.15501953 231.33064453 -561.15501953 231.33064453 -560.29296875 231.66796875 C-557.27331541 233.42214556 -555.52086326 235.61501166 -553.3125 238.3125 C-552.52488281 239.25738281 -551.73726562 240.20226562 -550.92578125 241.17578125 C-549.03993019 243.94144112 -548.35333422 245.71219515 -548 249 C-547.34 249 -546.68 249 -546 249 C-546 249.66 -546 250.32 -546 251 C-545.34 251 -544.68 251 -544 251 C-542.52734375 252.64453125 -542.52734375 252.64453125 -540.9375 254.8125 C-540.41027344 255.52019531 -539.88304687 256.22789062 -539.33984375 256.95703125 C-538 259 -538 259 -537 262 C-536.01 262.66 -535.02 263.32 -534 264 C-532.98648336 265.65848177 -531.98879205 267.32665961 -531 269 C-530.11995356 270.07561232 -529.2234754 271.1379537 -528.3125 272.1875 C-526 275 -526 275 -526 277 C-525.34 277 -524.68 277 -524 277 C-522 280 -522 280 -522 283 C-521.071875 283.309375 -521.071875 283.309375 -520.125 283.625 C-517.15346355 285.54775888 -516.86975341 287.66594527 -516 291 C-515.34 291 -514.68 291 -514 291 C-512 294 -512 294 -512 297 C-511.34 297 -510.68 297 -510 297 C-508.30859375 298.79296875 -508.30859375 298.79296875 -506.4375 301.1875 C-505.81746094 301.96480469 -505.19742188 302.74210937 -504.55859375 303.54296875 C-502.936876 306.09951127 -502.38623806 308.02120511 -502 311 C-501.34 311 -500.68 311 -500 311 C-499.67 312.32 -499.34 313.64 -499 315 C-498.34 315 -497.68 315 -497 315 C-494.25624329 317.95481492 -494 318.77471908 -494 323 C-493.34 323 -492.68 323 -492 323 C-491.67 324.32 -491.34 325.64 -491 327 C-490.34 327 -489.68 327 -489 327 C-489 327.66 -489 328.32 -489 329 C-488.34 329 -487.68 329 -487 329 C-485.57421875 331.14453125 -485.57421875 331.14453125 -484 334 C-483.47019531 334.93199219 -482.94039062 335.86398437 -482.39453125 336.82421875 C-481.87246094 337.76910156 -481.35039062 338.71398437 -480.8125 339.6875 C-480.28269531 340.64011719 -479.75289063 341.59273437 -479.20703125 342.57421875 C-478 345 -478 345 -478 347 C-477.34 347 -476.68 347 -476 347 C-475.67 348.32 -475.34 349.64 -475 351 C-474.34 351 -473.68 351 -473 351 C-470 356.75 -470 356.75 -470 359 C-469.34 359 -468.68 359 -468 359 C-467.32845067 360.28913487 -466.66291141 361.58140204 -466 362.875 C-465.62875 363.59429688 -465.2575 364.31359375 -464.875 365.0546875 C-464 367 -464 367 -464 369 C-463.34 369 -462.68 369 -462 369 C-460.87084961 370.48120117 -460.87084961 370.48120117 -459.65234375 372.54296875 C-459.21212891 373.28740234 -458.77191406 374.03183594 -458.31835938 374.79882812 C-457.63483398 375.9812207 -457.63483398 375.9812207 -456.9375 377.1875 C-456.47794922 377.95642578 -456.01839844 378.72535156 -455.54492188 379.51757812 C-453.33619783 383.29608548 -451.43628434 386.55702277 -451 391 C-450.34 391 -449.68 391 -449 391 C-447.84583494 393.05821081 -446.70164153 395.12099472 -445.5625 397.1875 C-444.92441406 398.33605469 -444.28632812 399.48460937 -443.62890625 400.66796875 C-442.21240965 403.56550257 -441.42360107 405.83194128 -441 409 C-440.34 409 -439.68 409 -439 409 C-438.67 410.98 -438.34 412.96 -438 415 C-437.34 415 -436.68 415 -436 415 C-435.49210937 416.01578125 -434.98421875 417.0315625 -434.4609375 418.078125 C-434.13061523 418.73868896 -433.80029297 419.39925293 -433.45996094 420.07983398 C-432.73118537 421.53754911 -432.00267359 422.99539614 -431.27441406 424.45336914 C-429.61338683 427.77798016 -427.94912613 431.10071186 -426.2734375 434.41796875 C-418 450.81634615 -418 450.81634615 -418 455 C-417.34 455 -416.68 455 -416 455 C-413.01253155 460.16017278 -411.97458672 465.19834261 -411 471 C-410.34 471 -409.68 471 -409 471 C-409 472.32 -409 473.64 -409 475 C-408.34 475 -407.68 475 -407 475 C-405.23537317 478.08809695 -405 479.23312136 -405 483 C-404.34 483 -403.68 483 -403 483 C-402.49166409 484.24663331 -401.99368855 485.49749387 -401.5 486.75 C-401.2215625 487.44609375 -400.943125 488.1421875 -400.65625 488.859375 C-400 491 -400 491 -400 495 C-399.34 495 -398.68 495 -398 495 C-397.67386719 495.97839844 -397.34773438 496.95679688 -397.01171875 497.96484375 C-396.80119873 498.59624268 -396.59067871 499.2276416 -396.3737793 499.87817383 C-395.91521829 501.2541831 -395.45704945 502.63032312 -394.99926758 504.0065918 C-394.00839777 506.98413269 -393.01371341 509.959824 -392 512.9296875 C-390 518.79507212 -390 518.79507212 -390 521 C-410.07658723 521.49935389 -429.82448277 520.64501246 -449.35546875 515.625 C-451.99490085 515.00120512 -454.55311493 514.64343024 -457.25 514.375 C-461 514 -461 514 -462 513 C-463.34747084 512.76924918 -464.70377565 512.58846937 -466.0625 512.4375 C-467.361875 512.293125 -468.66125 512.14875 -470 512 C-470 511.34 -470 510.68 -470 510 C-470.65226562 510.02320313 -471.30453125 510.04640625 -471.9765625 510.0703125 C-477.08698903 510.17583753 -481.20425033 510.01926302 -486 508 C-486 507.34 -486 506.68 -486 506 C-487.2375 505.855625 -488.475 505.71125 -489.75 505.5625 C-492.56504499 505.21311498 -495.2701497 504.79620634 -498 504 C-498 503.34 -498 502.68 -498 502 C-499.155 501.896875 -500.31 501.79375 -501.5 501.6875 C-505.19688957 501.35742057 -508.36341282 500.15096827 -511.81054688 498.81323242 C-515.48146936 497.44973523 -519.23760914 496.39166064 -523 495.3125 C-523.77472656 495.08755859 -524.54945313 494.86261719 -525.34765625 494.63085938 C-527.23096846 494.08446633 -529.11537024 493.54183106 -531 493 C-531 492.34 -531 491.68 -531 491 C-531.99 491 -532.98 491 -534 491 C-534 490.34 -534 489.68 -534 489 C-535.0209375 488.82597656 -535.0209375 488.82597656 -536.0625 488.6484375 C-539.48976795 487.89188633 -542.6931657 486.80092168 -546 485.625 C-547.19625 485.20476562 -548.3925 484.78453125 -549.625 484.3515625 C-552.67527298 483.13004114 -555.32057387 481.89792684 -558 480 C-558 479.34 -558 478.68 -558 478 C-558.99 478 -559.98 478 -561 478 C-561 477.34 -561 476.68 -561 476 C-563.64 475.34 -566.28 474.68 -569 474 C-569 473.34 -569 472.68 -569 472 C-570.65 471.67 -572.3 471.34 -574 471 C-574 470.34 -574 469.68 -574 469 C-576.64 468.34 -579.28 467.68 -582 467 C-582 466.34 -582 465.68 -582 465 C-582.66 465 -583.32 465 -584 465 C-584 464.34 -584 463.68 -584 463 C-584.66 463 -585.32 463 -586 463 C-586 462.34 -586 461.68 -586 461 C-587.65 460.67 -589.3 460.34 -591 460 C-591 459.34 -591 458.68 -591 458 C-592.65 457.34 -594.3 456.68 -596 456 C-596 455.34 -596 454.68 -596 454 C-596.556875 453.896875 -597.11375 453.79375 -597.6875 453.6875 C-600.46849749 452.86071696 -602.55200184 451.55238908 -605 450 C-606.3921875 449.2265625 -606.3921875 449.2265625 -607.8125 448.4375 C-608.8953125 447.7259375 -608.8953125 447.7259375 -610 447 C-610 446.34 -610 445.68 -610 445 C-610.59296875 444.72542969 -611.1859375 444.45085937 -611.796875 444.16796875 C-613.90839925 443.04856139 -615.46805207 441.89116747 -617.25 440.3125 C-617.85972656 439.77625 -618.46945312 439.24 -619.09765625 438.6875 C-619.72542969 438.130625 -620.35320312 437.57375 -621 437 C-621.59683594 436.484375 -622.19367188 435.96875 -622.80859375 435.4375 C-628.99183816 430.08982916 -635.01008654 424.5620625 -641 419 C-641.69351563 418.36191406 -642.38703125 417.72382812 -643.1015625 417.06640625 C-644.46276845 415.77293804 -645.74385209 414.39571991 -647 413 C-647 412.01 -647 411.02 -647 410 C-647.66 410 -648.32 410 -649 410 C-650.36176922 408.35648543 -651.68962066 406.68477344 -653 405 C-653.9075 404.13375 -654.815 403.2675 -655.75 402.375 C-658 400 -658 400 -658 397 C-659.32 396.34 -660.64 395.68 -662 395 C-662 394.34 -662 393.68 -662 393 C-662.9590625 392.62875 -662.9590625 392.62875 -663.9375 392.25 C-666 391 -666 391 -666.75 388.875 C-666.8325 388.25625 -666.915 387.6375 -667 387 C-667.66 387 -668.32 387 -669 387 C-672.875 380.375 -672.875 380.375 -674 377 C-674.66 377 -675.32 377 -676 377 C-677.7265625 374.48046875 -677.7265625 374.48046875 -679.625 371.1875 C-680.25664063 370.10855469 -680.88828125 369.02960938 -681.5390625 367.91796875 C-683 365 -683 365 -683 362 C-683.66 362 -684.32 362 -685 362 C-685 361.34 -685 360.68 -685 360 C-685.66 360 -686.32 360 -687 360 C-687.54527344 358.89205078 -687.54527344 358.89205078 -688.1015625 357.76171875 C-691.20536209 351.49841035 -694.42425194 345.34380623 -697.8984375 339.27734375 C-699 337 -699 337 -699 334 C-699.66 334 -700.32 334 -701 334 C-701.33 332.02 -701.66 330.04 -702 328 C-702.66 328 -703.32 328 -704 328 C-704.33773438 327.04738281 -704.67546875 326.09476563 -705.0234375 325.11328125 C-705.47390696 323.8463359 -705.92443067 322.57940984 -706.375 321.3125 C-706.81585937 320.07113281 -707.25671875 318.82976562 -707.7109375 317.55078125 C-708.47549216 315.44478069 -709.27898288 313.35122438 -710.1640625 311.29296875 C-711 309 -711 309 -711 305 C-711.66 305 -712.32 305 -713 305 C-715.03914551 300.27288996 -716.21854114 296.05030462 -716.875 290.9375 C-717.66012275 285.26498812 -719.1494261 280.14128958 -721.03149414 274.74145508 C-724.40807769 265.03143512 -727.73008517 255.4037137 -727 245 C-727.66 245 -728.32 245 -729 245 C-729.20496094 243.73542969 -729.40992188 242.47085938 -729.62109375 241.16796875 C-729.89310021 239.50779137 -730.16524272 237.84763627 -730.4375 236.1875 C-730.57220703 235.35412109 -730.70691406 234.52074219 -730.84570312 233.66210938 C-730.97783203 232.85966797 -731.10996094 232.05722656 -731.24609375 231.23046875 C-731.36654053 230.49207764 -731.4869873 229.75368652 -731.61108398 228.99291992 C-731.99393076 226.80376404 -731.99393076 226.80376404 -733 224 C-733.70125939 218.35118616 -734.12384862 212.67451624 -734.5625 207 C-734.6310318 206.12104065 -734.6995636 205.2420813 -734.77017212 204.33648682 C-736.99103759 174.63904344 -736.26569741 144.75770826 -736 115 C-735.34 115 -734.68 115 -734 115 C-734.01667725 113.98268799 -734.03335449 112.96537598 -734.05053711 111.91723633 C-734.18308813 99.84783242 -733.58086891 87.87591933 -732.77319336 75.83618164 C-732.55979454 72.64706862 -732.3564444 69.45742226 -732.15429688 66.26757812 C-732.02141351 64.22392053 -731.88797113 62.18029918 -731.75390625 60.13671875 C-731.66321617 58.71802742 -731.66321617 58.71802742 -731.57069397 57.27067566 C-731.28682504 53.09451638 -730.91998099 49.09292747 -730 45 C-729.85150281 42.66804416 -729.72885968 40.33436985 -729.625 38 C-729.29266948 31.93589322 -728.26114734 26.30914296 -726.765625 20.4296875 C-725.33747736 14.03216898 -724.7103526 7.51017267 -724 1 C-717.73358518 0.72885705 -711.64916942 1.1672863 -705.4375 1.9375 C-704.72271484 2.02435059 -704.00792969 2.11120117 -703.27148438 2.20068359 C-698.1285532 2.8714468 -698.1285532 2.8714468 -697 4 C-694.67182036 4.36760731 -692.3381615 4.70241581 -690 5 C-690 5.66 -690 6.32 -690 7 C-689.39849121 6.96084473 -688.79698242 6.92168945 -688.17724609 6.88134766 C-681.31605883 6.6309587 -676.00961784 7.98475796 -669.625 10.375 C-662.95862321 12.74771851 -656.65008615 14.77950175 -649.5703125 15.515625 C-646.13656802 16.16271363 -643.20587953 17.61874339 -640 19 C-637.39989716 19.79855086 -634.77172108 20.43827935 -632.125 21.0625 C-631.42391113 21.23313965 -630.72282227 21.4037793 -630.00048828 21.57958984 C-626.30172321 22.4741072 -622.59451456 23.32163546 -618.875 24.125 C-615.46153425 24.89578259 -612.29371498 25.83347594 -609 27 C-607.6582537 27.44742205 -606.31572266 27.89249389 -604.97265625 28.3359375 C-599.77480552 30.06486799 -594.6054033 31.87134029 -589.4375 33.6875 C-588.52419922 34.00783203 -587.61089844 34.32816406 -586.66992188 34.65820312 C-584.44639654 35.43818322 -582.22309402 36.21879162 -580 37 C-580 37.66 -580 38.32 -580 39 C-578.845 39.0825 -577.69 39.165 -576.5 39.25 C-572.48847487 39.74350924 -569.58468503 41.0485011 -566.0625 42.9609375 C-563.92791791 44.03631408 -561.83998284 44.78037869 -559.5625 45.5 C-552.74269577 47.6635241 -546.35870014 50.73912813 -540 54 C-540 54.66 -540 55.32 -540 56 C-539.01 56 -538.02 56 -537 56 C-537 56.66 -537 57.32 -537 58 C-536.236875 57.95875 -535.47375 57.9175 -534.6875 57.875 C-532 58 -532 58 -529 60 C-529 60.66 -529 61.32 -529 62 C-528.05125 61.979375 -527.1025 61.95875 -526.125 61.9375 C-523 62 -523 62 -521 63 C-521 63.66 -521 64.32 -521 65 C-520.236875 65.144375 -519.47375 65.28875 -518.6875 65.4375 C-516 66 -516 66 -513 67 C-513 67.66 -513 68.32 -513 69 C-512.34 69.226875 -511.68 69.45375 -511 69.6875 C-508.479087 70.79039944 -506.42103636 71.95445706 -504.125 73.4375 C-501.59276332 75.06570452 -499.36737956 76.26455037 -496.5625 77.4375 C-491.44418654 79.68237432 -486.36301967 82.61387011 -482.40234375 86.61328125 C-480.51645568 88.47815664 -478.47531322 89.13029535 -476 90 C-476 90.66 -476 91.32 -476 92 C-475.27425781 92.09410156 -474.54851562 92.18820312 -473.80078125 92.28515625 C-470.5693545 93.10991371 -468.78368257 94.36658157 -466.1875 96.4375 C-465.39730469 97.05496094 -464.60710937 97.67242187 -463.79296875 98.30859375 C-463.20128906 98.86675781 -462.60960937 99.42492187 -462 100 C-462 100.66 -462 101.32 -462 102 C-461.42378906 102.103125 -460.84757812 102.20625 -460.25390625 102.3125 C-457.62970503 103.11294959 -456.07183062 104.28924559 -453.9375 106 C-451.50396398 107.9430921 -449.99614169 109.0012861 -447 110 C-445.28649343 111.61847175 -443.62701495 113.2946033 -442 115 C-441.05821132 115.95791858 -440.1141471 116.91360455 -439.16796875 117.8671875 C-438.4414209 118.60159058 -438.4414209 118.60159058 -437.70019531 119.35083008 C-432.01071103 125.08347217 -426.16834552 130.50084729 -419.98046875 135.6953125 C-415.82076922 139.24258973 -412.22473256 142.9459347 -408.69921875 147.12109375 C-407.1378608 148.84756082 -405.58265436 150.20153688 -403.75 151.625 C-398.41617084 156.01192466 -394.49384731 161.81372434 -390.328125 167.27099609 C-388.44012825 169.72886245 -386.50385756 172.14666886 -384.5625 174.5625 C-383.96566406 175.30628906 -383.36882812 176.05007813 -382.75390625 176.81640625 C-381.48260769 178.3991588 -380.20284826 179.97512746 -378.91796875 181.546875 C-373 189.11608961 -373 189.11608961 -373 193 C-372.34 193 -371.68 193 -371 193 C-370.32845067 194.28913487 -369.66291141 195.58140204 -369 196.875 C-368.62875 197.59429687 -368.2575 198.31359375 -367.875 199.0546875 C-367 201 -367 201 -367 203 C-366.34 203 -365.68 203 -365 203 C-364.54625 204.134375 -364.0925 205.26875 -363.625 206.4375 C-362.42904194 210.04721692 -362.42904194 210.04721692 -360 211 C-359.5359375 209.576875 -359.5359375 209.576875 -359.0625 208.125 C-358 205 -358 205 -357 203 C-356.34 203 -355.68 203 -355 203 C-355 201.68 -355 200.36 -355 199 C-354.34 199 -353.68 199 -353 199 C-352.9175 198.46375 -352.835 197.9275 -352.75 197.375 C-351.72418729 194.12659309 -350.03436106 191.71248141 -348 189 C-347.34 189 -346.68 189 -346 189 C-345.9175 188.46375 -345.835 187.9275 -345.75 187.375 C-343.98144439 181.7745739 -339.6440256 177.14366373 -336.0625 172.5625 C-333.2857539 168.99551961 -330.5520866 165.42040279 -328 161.6875 C-327.34 160.800625 -326.68 159.91375 -326 159 C-325.34 159 -324.68 159 -324 159 C-323.6596875 158.195625 -323.6596875 158.195625 -323.3125 157.375 C-321.54429911 154.17539839 -319.46329797 151.70962777 -317 149 C-316.34 149 -315.68 149 -315 149 C-314.7313916 148.40614502 -314.4627832 147.81229004 -314.18603516 147.20043945 C-312.99467768 144.99012555 -311.79788102 143.55352817 -310.0234375 141.79296875 C-309.43860596 141.20926514 -308.85377441 140.62556152 -308.2512207 140.02416992 C-307.63206787 139.41806885 -307.01291504 138.81196777 -306.375 138.1875 C-305.74489014 137.56528564 -305.11478027 136.94307129 -304.46557617 136.30200195 C-292.41541079 124.4718036 -292.41541079 124.4718036 -288 123 C-288 122.34 -288 121.68 -288 121 C-283.52941176 117 -283.52941176 117 -281 117 C-281 116.34 -281 115.68 -281 115 C-279.72509766 113.78588867 -279.72509766 113.78588867 -277.9140625 112.41796875 C-276.90267212 111.64803589 -276.90267212 111.64803589 -275.87084961 110.86254883 C-275.12971924 110.30978271 -274.38858887 109.7570166 -273.625 109.1875 C-272.86131104 108.61217529 -272.09762207 108.03685059 -271.31079102 107.4440918 C-268.88049108 105.62031299 -266.44155966 103.80867081 -264 102 C-263.2363916 101.4318457 -262.4727832 100.86369141 -261.68603516 100.27832031 C-235.82296763 81.09193581 -235.82296763 81.09193581 -222.6875 75.79296875 C-220.28298742 74.66307048 -218.76437879 72.95341937 -217 71 C-212.60714286 68 -212.60714286 68 -209 68 C-209 67.34 -209 66.68 -209 66 C-206.03 65.505 -206.03 65.505 -203 65 C-203 64.34 -203 63.68 -203 63 C-197.49950982 60.388404 -191.9965456 57.78208872 -186.49169922 55.1796875 C-184.34827439 54.16488946 -182.20699216 53.14576567 -180.06640625 52.125 C-173.0758764 48.81732322 -166.03322827 45.637633 -158.9375 42.5625 C-158.13957031 42.20792725 -157.34164062 41.85335449 -156.51953125 41.48803711 C-152.17042029 39.63091145 -148.82726859 38.5597531 -144 39 C-144 38.34 -144 37.68 -144 37 C-141.62854106 36.15520547 -139.25365876 35.32406717 -136.875 34.5 C-136.20984375 34.26152344 -135.5446875 34.02304687 -134.859375 33.77734375 C-130.76645945 32.37291194 -127.38868208 31.72656186 -123 32 C-123 31.34 -123 30.68 -123 30 C-121.7625 29.71125 -120.525 29.4225 -119.25 29.125 C-116.87815147 28.54038945 -114.94286138 27.97143069 -112.75 26.875 C-111 26 -111 26 -107 26 C-107 25.34 -107 24.68 -107 24 C-105.72125 23.67386719 -104.4425 23.34773438 -103.125 23.01171875 C-101.41660776 22.57054053 -99.70827772 22.12912143 -98 21.6875 C-97.16082031 21.47416016 -96.32164062 21.26082031 -95.45703125 21.04101562 C-91.60015748 20.03942437 -87.84604786 18.99550095 -84.140625 17.5234375 C-78.8235666 15.45354453 -73.29432395 14.24185058 -67.75 12.9375 C-66.69425781 12.68162109 -65.63851562 12.42574219 -64.55078125 12.16210938 C-59.28444434 10.90837311 -54.05582837 9.81892347 -48.703125 9.00390625 C-44.47978959 8.33974014 -40.81954442 7.31435198 -36.87744141 5.69580078 C-33.57501856 4.47188594 -30.15544972 3.98198486 -26.6875 3.4375 C-25.19394043 3.19052705 -23.70045076 2.94313097 -22.20703125 2.6953125 C-21.48854004 2.57833008 -20.77004883 2.46134766 -20.02978516 2.34082031 C-17.30130785 1.88268292 -14.58967752 1.34567318 -11.875 0.8125 C-7.80923013 0.0822704 -4.12150443 -0.43845792 0 0 Z " fill="#157347" transform="translate(989,284)"/>
<path d="M0 0 C2.26490337 3.39735506 2.49835662 5.41987398 3 9.4375 C3.144375 10.57058594 3.28875 11.70367187 3.4375 12.87109375 C3.51943604 13.52070068 3.60137207 14.17030762 3.68579102 14.83959961 C3.90306235 16.33348777 4.16159561 17.82174201 4.45288086 19.30297852 C6.59079621 30.4350232 6.91856631 41.76856651 7.5625 53.0625 C7.74987539 56.30368541 7.93913499 59.5447203 8.13328552 62.7855072 C8.25320282 64.79076703 8.36912909 66.79627046 8.48060608 68.80201721 C8.53413742 69.70403366 8.58766876 70.60605011 8.64282227 71.53540039 C8.68786392 72.32749405 8.73290558 73.11958771 8.77931213 73.9356842 C8.94660624 76.1958032 8.94660624 76.1958032 10 79 C10.53328625 84.21411098 10.78064356 89.45438504 11.0625 94.6875 C11.12928452 95.9101355 11.12928452 95.9101355 11.19741821 97.1574707 C12.11681984 114.70636842 12.19335522 132.25794874 12.18803024 149.82584 C12.18750072 151.99704425 12.18867448 154.16824318 12.18997192 156.33944702 C12.19112187 160.45551105 12.18087912 164.57145534 12.16796875 168.6875 C12.16677032 169.92768387 12.1655719 171.16786774 12.16433716 172.44563293 C12.13368266 178.07652138 11.91107711 183.43187941 11 189 C10.80490397 191.74692501 10.63536608 194.48482833 10.5 197.234375 C10.41670962 198.79297105 10.33337501 200.35156473 10.25 201.91015625 C10.12371839 204.34157053 9.99882621 206.77304929 9.875 209.20458984 C9.75348644 211.56888292 9.62697042 213.93286966 9.5 216.296875 C9.46455078 217.02501404 9.42910156 217.75315308 9.39257812 218.50335693 C9.22735986 221.5520144 8.97114708 224.08655876 8 227 C7.69301138 230.38540224 7.49095405 233.77135062 7.28125 237.1640625 C7 240 7 240 6 241 C5.77285996 242.63066766 5.60544914 244.26976003 5.46484375 245.91015625 C5.37783203 246.89951172 5.29082031 247.88886719 5.20117188 248.90820312 C5.11416016 249.94912109 5.02714844 250.99003906 4.9375 252.0625 C4.80118164 253.62967773 4.80118164 253.62967773 4.66210938 255.22851562 C4.43739092 257.8186915 4.2168769 260.40915767 4 263 C3.34 263 2.68 263 2 263 C2.0309375 264.9490625 2.0309375 264.9490625 2.0625 266.9375 C2.08399454 268.29165633 2.07148199 269.64756083 2 271 C1.67 271.33 1.34 271.66 1 272 C0.66397402 273.31279832 0.37225965 274.63703506 0.1015625 275.96484375 C-0.9504187 280.89002845 -2.25339853 285.7180355 -3.625 290.5625 C-3.85445312 291.38041016 -4.08390625 292.19832031 -4.3203125 293.04101562 C-4.8780488 295.0279512 -5.43871096 297.01406511 -6 299 C-6.66 299 -7.32 299 -8 299 C-7.9175 299.845625 -7.835 300.69125 -7.75 301.5625 C-8.00833188 305.11456333 -8.91156649 306.71380558 -10.77734375 309.65625 C-13.60941282 315.0851364 -15.17027428 321.17337343 -17 327 C-17.66 327 -18.32 327 -19 327 C-19.33 328.32 -19.66 329.64 -20 331 C-20.66 331 -21.32 331 -22 331 C-22.11601563 331.86753906 -22.23203125 332.73507812 -22.3515625 333.62890625 C-23.00222457 337.01156508 -24.00730076 339.78350267 -25.375 342.9375 C-25.81972656 343.97261719 -26.26445313 345.00773437 -26.72265625 346.07421875 C-27.35494141 347.52248047 -27.35494141 347.52248047 -28 349 C-28.6049636 350.41632654 -29.20930308 351.83292016 -29.8125 353.25 C-30.204375 354.1575 -30.59625 355.065 -31 356 C-31.66 356 -32.32 356 -33 356 C-33 356.99 -33 357.98 -33 359 C-33.66 359 -34.32 359 -35 359 C-35.66 361.31 -36.32 363.62 -37 366 C-37.66 366 -38.32 366 -39 366 C-39 366.99 -39 367.98 -39 369 C-39.66 369 -40.32 369 -41 369 C-41.33 370.32 -41.66 371.64 -42 373 C-42.66 373 -43.32 373 -44 373 C-44.33 374.32 -44.66 375.64 -45 377 C-45.66 377 -46.32 377 -47 377 C-47.0825 377.556875 -47.165 378.11375 -47.25 378.6875 C-48.23895541 381.73677919 -49.84757466 383.65189963 -52 386 C-52.66 386 -53.32 386 -54 386 C-54 386.99 -54 387.98 -54 389 C-54.66 389 -55.32 389 -56 389 C-56.33 390.32 -56.66 391.64 -57 393 C-57.66 393 -58.32 393 -59 393 C-59.103125 393.598125 -59.20625 394.19625 -59.3125 394.8125 C-60.09824033 397.31258286 -60.96918853 398.37535082 -63 400 C-63.66 400 -64.32 400 -65 400 C-65.4021875 400.86625 -65.4021875 400.86625 -65.8125 401.75 C-67.02929189 404.05550043 -68.30333879 406.02056192 -70 408 C-70.66 408 -71.32 408 -72 408 C-72.4021875 408.8353125 -72.4021875 408.8353125 -72.8125 409.6875 C-74.10899496 412.21225334 -75.42476323 414.63714484 -77 417 C-77.66 417 -78.32 417 -79 417 C-79 417.66 -79 418.32 -79 419 C-79.598125 419.268125 -80.19625 419.53625 -80.8125 419.8125 C-84.31088537 421.71162349 -85.73345454 423.20036361 -87 427 C-88.390625 428.4375 -88.390625 428.4375 -90.25 430 C-90.96671875 430.60714844 -91.6834375 431.21429687 -92.421875 431.83984375 C-93.27265625 432.55269531 -94.1234375 433.26554687 -95 434 C-96.04775563 434.89610679 -97.09457708 435.7933066 -98.140625 436.69140625 C-103.34603236 441.14838356 -108.54648521 445.56436454 -114.09765625 449.58984375 C-115.52848429 450.65047809 -116.92720949 451.75463243 -118.30859375 452.87890625 C-119.09363281 453.51699219 -119.87867188 454.15507813 -120.6875 454.8125 C-121.39261719 455.39644531 -122.09773437 455.98039062 -122.82421875 456.58203125 C-125.23755733 458.15481743 -127.16577188 458.61780111 -130 459 C-130 459.66 -130 460.32 -130 461 C-131.65 461.33 -133.3 461.66 -135 462 C-135 462.66 -135 463.32 -135 464 C-136.16015625 464.56267578 -136.16015625 464.56267578 -137.34375 465.13671875 C-142.74039585 467.78828856 -147.95213386 470.49381789 -152.98828125 473.77734375 C-156.13842335 475.69189613 -159.46429449 477.22819428 -162.80078125 478.7890625 C-165.01235022 479.86093265 -165.01235022 479.86093265 -166.41015625 481.4921875 C-168.69843554 483.66239832 -171.1788371 484.41347184 -174.125 485.5 C-175.27613281 485.92667969 -176.42726563 486.35335938 -177.61328125 486.79296875 C-181.72442866 488.25818738 -185.84566974 489.66216483 -190 491 C-190 491.66 -190 492.32 -190 493 C-195.57396892 495.41453032 -201.14121429 497.3846674 -207 499 C-212.05794433 500.39737357 -216.85013132 502.03954552 -221.69140625 504.05078125 C-227.47524163 506.42890646 -232.64469142 508.48886989 -239 508 C-239 508.66 -239 509.32 -239 510 C-256.86736251 514.22605384 -256.86736251 514.22605384 -265.58203125 514.79296875 C-268.0168767 515.00144502 -270.30034132 515.42061109 -272.6875 515.9375 C-291.50952508 519.90939191 -310.84330628 520.20379461 -330 520 C-328.52105369 512.02265325 -326.94681843 505.10427318 -323 498 C-322.63047023 496.67624147 -322.28756938 495.3439467 -322 494 C-321.34 494 -320.68 494 -320 494 C-319.9175 493.21625 -319.835 492.4325 -319.75 491.625 C-317.83749299 482.38121611 -313.38172541 472.86123027 -308 465.125 C-305.47682478 461.18253873 -303.86440659 457.05160268 -302.1484375 452.70703125 C-301 450 -301 450 -299 447 C-298.45927731 445.55627042 -297.96184105 444.09586334 -297.5 442.625 C-296.45026322 439.35856017 -295.32790059 436.16653218 -294 433 C-293.34 433 -292.68 433 -292 433 C-291.896875 432.29875 -291.79375 431.5975 -291.6875 430.875 C-290.15127066 424.45076822 -286.1948761 418.51842083 -283.125 412.6875 C-282.70347656 411.88376953 -282.28195312 411.08003906 -281.84765625 410.25195312 C-279.32484403 405.4570669 -276.74165826 400.70157551 -274.09863281 395.97192383 C-272.81128496 393.66127747 -271.56110113 391.33177245 -270.3125 389 C-266.07297931 381.21846331 -261.54071804 373.60833644 -257 366 C-256.6198877 365.3611084 -256.23977539 364.7222168 -255.84814453 364.06396484 C-249.41520369 353.28498544 -249.41520369 353.28498544 -246.1875 349.625 C-243.66593583 346.59912299 -242.45721597 343.64303992 -241 340 C-239.4375 337.0625 -239.4375 337.0625 -238 335 C-237.34 335 -236.68 335 -236 335 C-235.9071875 334.1646875 -235.9071875 334.1646875 -235.8125 333.3125 C-234.87710245 330.65021468 -233.46769535 329.55139364 -231.44921875 327.66015625 C-228.92802063 324.77199129 -227.36709932 321.33634743 -225.59375 317.95703125 C-222.99375652 313.13302374 -219.99885497 308.58280133 -217 304 C-216.28972656 302.89140625 -215.57945312 301.7828125 -214.84765625 300.640625 C-214.13480469 299.54234375 -213.42195312 298.4440625 -212.6875 297.3125 C-212.03136719 296.29800781 -211.37523437 295.28351563 -210.69921875 294.23828125 C-210.13847656 293.49964844 -209.57773437 292.76101563 -209 292 C-208.34 292 -207.68 292 -207 292 C-206.690625 291.21625 -206.38125 290.4325 -206.0625 289.625 C-205 287 -205 287 -204 285 C-203.34 285 -202.68 285 -202 285 C-201.69255859 284.01580078 -201.69255859 284.01580078 -201.37890625 283.01171875 C-199.46324959 278.82766412 -196.74399251 275.43960435 -193.9375 271.8125 C-192.84113597 270.38251533 -191.74602235 268.95157083 -190.65234375 267.51953125 C-190.16757568 266.89151611 -189.68280762 266.26350098 -189.18334961 265.61645508 C-187.92917771 263.99792431 -187.92917771 263.99792431 -187 262 C-186.34 262 -185.68 262 -185 262 C-184.7834375 261.32453125 -184.566875 260.6490625 -184.34375 259.953125 C-182.58284822 256.08323619 -180.15066272 253.0513422 -177.5 249.75 C-177.00113281 249.11320313 -176.50226563 248.47640625 -175.98828125 247.8203125 C-172.26989638 243.13494819 -172.26989638 243.13494819 -170 242 C-169.27840576 240.35636866 -168.60648579 238.68949614 -168 237 C-167.34 237 -166.68 237 -166 237 C-165.7421875 236.44828125 -165.484375 235.8965625 -165.21875 235.328125 C-163.82036875 232.65685825 -162.21236695 230.23148091 -160.5 227.75 C-159.8915625 226.85796875 -159.283125 225.9659375 -158.65625 225.046875 C-158.1096875 224.37140625 -157.563125 223.6959375 -157 223 C-156.34 223 -155.68 223 -155 223 C-154.67 221.68 -154.34 220.36 -154 219 C-153.34 219 -152.68 219 -152 219 C-151.62875 217.7934375 -151.62875 217.7934375 -151.25 216.5625 C-150.8375 215.716875 -150.425 214.87125 -150 214 C-149.01 213.7834375 -149.01 213.7834375 -148 213.5625 C-147.34 213.376875 -146.68 213.19125 -146 213 C-145.31875294 211.00491933 -144.65572791 209.00361307 -144 207 C-142.20193102 204.17083496 -140.2904148 201.45223759 -138 199 C-137.34 199 -136.68 199 -136 199 C-135.731875 198.2575 -135.46375 197.515 -135.1875 196.75 C-134.04723249 194.10938051 -132.90619694 192.14447156 -131 190 C-130.34 190 -129.68 190 -129 190 C-128.731875 189.2575 -128.46375 188.515 -128.1875 187.75 C-127.04723249 185.10938051 -125.90619694 183.14447156 -124 181 C-123.34 181 -122.68 181 -122 181 C-121.731875 180.2575 -121.46375 179.515 -121.1875 178.75 C-120.04723249 176.10938051 -118.90619694 174.14447156 -117 172 C-116.34 172 -115.68 172 -115 172 C-114.34 170.35 -113.68 168.7 -113 167 C-113.83144531 167.42152344 -114.66289063 167.84304688 -115.51953125 168.27734375 C-116.60621094 168.82519531 -117.69289063 169.37304688 -118.8125 169.9375 C-119.89144531 170.48277344 -120.97039062 171.02804687 -122.08203125 171.58984375 C-125 173 -125 173 -128 174 C-128.33 174.99 -128.66 175.98 -129 177 C-131.109375 178.7890625 -131.109375 178.7890625 -133.75 180.625 C-134.61109375 181.23601562 -135.4721875 181.84703125 -136.359375 182.4765625 C-138.98682579 183.99239949 -141.0146246 184.60266586 -144 185 C-144.33 185.99 -144.66 186.98 -145 188 C-148.0625 189.1875 -148.0625 189.1875 -151 190 C-151 190.66 -151 191.32 -151 192 C-152.3882428 192.94806826 -153.7828048 193.88814838 -155.20703125 194.78125 C-157.83679331 196.56880068 -160.13563969 198.69098747 -162.484375 200.828125 C-164 202 -164 202 -166 202 C-166 202.66 -166 203.32 -166 204 C-168.475 204.99 -168.475 204.99 -171 206 C-171 206.66 -171 207.32 -171 208 C-171.66 208 -172.32 208 -173 208 C-173 208.66 -173 209.32 -173 210 C-173.66 210 -174.32 210 -175 210 C-175 210.66 -175 211.32 -175 212 C-175.804375 212.474375 -176.60875 212.94875 -177.4375 213.4375 C-180.2918076 214.79983672 -180.2918076 214.79983672 -181 218 C-185.33333333 221 -185.33333333 221 -188 221 C-188 221.66 -188 222.32 -188 223 C-188.66 223 -189.32 223 -190 223 C-190 223.66 -190 224.32 -190 225 C-191.609375 226.55078125 -191.609375 226.55078125 -193.75 228.3125 C-196.91874705 230.99674618 -199.43514724 233.72760165 -202 237 C-202.763125 237.598125 -203.52625 238.19625 -204.3125 238.8125 C-208.70384948 242.38685423 -213.18611788 246.55835365 -215 252 C-215.66 252 -216.32 252 -217 252 C-217.66 253.32 -218.32 254.64 -219 256 C-219.99 256 -220.98 256 -222 256 C-222.309375 256.61875 -222.61875 257.2375 -222.9375 257.875 C-223.625 259.25 -224.3125 260.625 -225 262 C-225.66 262 -226.32 262 -227 262 C-227 262.66 -227 263.32 -227 264 C-227.66 264 -228.32 264 -229 264 C-229.28875 264.5775 -229.5775 265.155 -229.875 265.75 C-230.24625 266.4925 -230.6175 267.235 -231 268 C-231.309375 268.680625 -231.61875 269.36125 -231.9375 270.0625 C-233.06603899 272.12042404 -234.3477988 273.3477988 -236 275 C-236.515625 275.886875 -237.03125 276.77375 -237.5625 277.6875 C-238.036875 278.450625 -238.51125 279.21375 -239 280 C-239.66 280 -240.32 280 -241 280 C-241.4021875 280.86625 -241.4021875 280.86625 -241.8125 281.75 C-243.0388622 284.07363365 -244.24843434 286.03824646 -246 288 C-246.99 288 -247.98 288 -249 288 C-249.33 289.32 -249.66 290.64 -250 292 C-250.66 292 -251.32 292 -252 292 C-252 292.99 -252 293.98 -252 295 C-252.66 295 -253.32 295 -254 295 C-254.33 296.65 -254.66 298.3 -255 300 C-255.99 300 -256.98 300 -258 300 C-258.268125 300.53625 -258.53625 301.0725 -258.8125 301.625 C-259.204375 302.40875 -259.59625 303.1925 -260 304 C-260.6496875 305.4540625 -260.6496875 305.4540625 -261.3125 306.9375 C-263.14632087 310.26554528 -265.2915698 312.35928055 -268 315 C-268.556875 315.928125 -269.11375 316.85625 -269.6875 317.8125 C-270.3371875 318.8953125 -270.3371875 318.8953125 -271 320 C-271.66 320 -272.32 320 -273 320 C-273.33 321.65 -273.66 323.3 -274 325 C-274.66 325 -275.32 325 -276 325 C-276.28875 325.721875 -276.5775 326.44375 -276.875 327.1875 C-277.91666667 329.79166667 -278.95833333 332.39583333 -280 335 C-280.66 335 -281.32 335 -282 335 C-282.103125 335.598125 -282.20625 336.19625 -282.3125 336.8125 C-283 339 -283 339 -284.421875 340.3828125 C-286.64665037 342.66265657 -287.59343862 345.262669 -288.83984375 348.16015625 C-290 350 -290 350 -292.05078125 351.01953125 C-294.45237266 351.94338835 -294.45237266 351.94338835 -295.25 355.625 C-295.4975 356.73875 -295.745 357.8525 -296 359 C-296.66 359 -297.32 359 -298 359 C-298.28875 359.9075 -298.5775 360.815 -298.875 361.75 C-299.76531776 364.32202908 -300.71494413 366.61346766 -302 369 C-302.66 369 -303.32 369 -304 369 C-304.309375 369.78375 -304.61875 370.5675 -304.9375 371.375 C-306 374 -306 374 -307 376 C-307.66 376 -308.32 376 -309 376 C-309.103125 376.721875 -309.20625 377.44375 -309.3125 378.1875 C-310.07095686 381.29027805 -311.35093089 383.27269339 -313 386 C-313.80333059 387.95863593 -314.52247006 389.93753572 -315.23828125 391.9296875 C-316.37095386 395.00823358 -317.68540013 397.99520029 -319 401 C-319.66 401 -320.32 401 -321 401 C-321.66 403.31 -322.32 405.62 -323 408 C-323.66 408 -324.32 408 -325 408 C-325.12375 408.7425 -325.2475 409.485 -325.375 410.25 C-325.95486701 412.80141485 -326.73708739 414.7267573 -328 417 C-328.66 417 -329.32 417 -330 417 C-330.15855469 417.6290625 -330.31710937 418.258125 -330.48046875 418.90625 C-331.93716193 424.250141 -333.68891026 428.63173777 -336.81640625 433.2109375 C-338.05064108 435.07654659 -339.03616249 436.98349203 -340 439 C-340.66 439 -341.32 439 -342 439 C-342 439.99 -342 440.98 -342 442 C-342.66 442 -343.32 442 -344 442 C-344.36697028 434.60707797 -343.07835555 428.51046223 -341 421.4375 C-340.71382812 420.42880859 -340.42765625 419.42011719 -340.1328125 418.38085938 C-339.43229533 415.917374 -338.72122895 413.45748534 -338 411 C-337.34 411 -336.68 411 -336 411 C-336.061875 409.824375 -336.12375 408.64875 -336.1875 407.4375 C-336.34860974 404.376415 -335.93009025 402.85202437 -334.59375 400.0234375 C-332.19210005 394.66678494 -331.86818867 388.97541617 -331.3125 383.1875 C-331.18584961 381.88176025 -331.05919922 380.57602051 -330.92871094 379.23071289 C-329.749815 365.82069888 -329.73363755 352.39026542 -329.75 338.9375 C-329.75077545 337.85568451 -329.7515509 336.77386902 -329.75234985 335.65927124 C-329.27125409 314.56518951 -329.27125409 314.56518951 -333 294 C-333.36862165 291.88667333 -333.6531032 289.76999232 -333.9375 287.64379883 C-335.65187101 274.85432326 -339.06872554 262.58593527 -343.6875 250.54296875 C-345 247 -345 247 -345 245 C-345.66 245 -346.32 245 -347 245 C-347.29132812 244.04480469 -347.58265625 243.08960938 -347.8828125 242.10546875 C-350.19120033 234.7518364 -352.72717924 228.04261459 -356.66796875 221.3671875 C-359.90771493 215.60975001 -360.23860928 212.39948131 -359 206 C-358.34 205.01 -357.68 204.02 -357 203 C-356.34 203 -355.68 203 -355 203 C-355 201.68 -355 200.36 -355 199 C-354.34 199 -353.68 199 -353 199 C-352.87625 198.195625 -352.87625 198.195625 -352.75 197.375 C-351.72418729 194.12659309 -350.03436106 191.71248141 -348 189 C-347.34 189 -346.68 189 -346 189 C-345.87625 188.195625 -345.87625 188.195625 -345.75 187.375 C-343.98144439 181.7745739 -339.6440256 177.14366373 -336.0625 172.5625 C-333.2857539 168.99551961 -330.5520866 165.42040279 -328 161.6875 C-327.34 160.800625 -326.68 159.91375 -326 159 C-325.34 159 -324.68 159 -324 159 C-323.6596875 158.195625 -323.6596875 158.195625 -323.3125 157.375 C-321.54429911 154.17539839 -319.46329797 151.70962777 -317 149 C-316.34 149 -315.68 149 -315 149 C-314.7313916 148.40614502 -314.4627832 147.81229004 -314.18603516 147.20043945 C-312.99467768 144.99012555 -311.79788102 143.55352817 -310.0234375 141.79296875 C-309.14619019 140.91741333 -309.14619019 140.91741333 -308.2512207 140.02416992 C-307.63206787 139.41806885 -307.01291504 138.81196777 -306.375 138.1875 C-305.74489014 137.56528564 -305.11478027 136.94307129 -304.46557617 136.30200195 C-292.41541079 124.4718036 -292.41541079 124.4718036 -288 123 C-288 122.34 -288 121.68 -288 121 C-283.52941176 117 -283.52941176 117 -281 117 C-281 116.34 -281 115.68 -281 115 C-279.72509766 113.78588867 -279.72509766 113.78588867 -277.9140625 112.41796875 C-277.23980225 111.90468018 -276.56554199 111.3913916 -275.87084961 110.86254883 C-275.12971924 110.30978271 -274.38858887 109.7570166 -273.625 109.1875 C-272.86131104 108.61217529 -272.09762207 108.03685059 -271.31079102 107.4440918 C-268.88049108 105.62031299 -266.44155966 103.80867081 -264 102 C-263.2363916 101.4318457 -262.4727832 100.86369141 -261.68603516 100.27832031 C-235.82296763 81.09193581 -235.82296763 81.09193581 -222.6875 75.79296875 C-220.28298742 74.66307048 -218.76437879 72.95341937 -217 71 C-212.60714286 68 -212.60714286 68 -209 68 C-209 67.34 -209 66.68 -209 66 C-206.03 65.505 -206.03 65.505 -203 65 C-203 64.34 -203 63.68 -203 63 C-197.49950982 60.388404 -191.9965456 57.78208872 -186.49169922 55.1796875 C-184.34827439 54.16488946 -182.20699216 53.14576567 -180.06640625 52.125 C-173.0758764 48.81732322 -166.03322827 45.637633 -158.9375 42.5625 C-158.13957031 42.20792725 -157.34164062 41.85335449 -156.51953125 41.48803711 C-152.17042029 39.63091145 -148.82726859 38.5597531 -144 39 C-144 38.34 -144 37.68 -144 37 C-141.62854106 36.15520547 -139.25365876 35.32406717 -136.875 34.5 C-136.20984375 34.26152344 -135.5446875 34.02304687 -134.859375 33.77734375 C-130.76645945 32.37291194 -127.38868208 31.72656186 -123 32 C-123 31.34 -123 30.68 -123 30 C-121.7625 29.71125 -120.525 29.4225 -119.25 29.125 C-116.87815147 28.54038945 -114.94286138 27.97143069 -112.75 26.875 C-111 26 -111 26 -107 26 C-107 25.34 -107 24.68 -107 24 C-105.081875 23.51080078 -105.081875 23.51080078 -103.125 23.01171875 C-101.41660776 22.57054053 -99.70827772 22.12912143 -98 21.6875 C-96.74123047 21.36749023 -96.74123047 21.36749023 -95.45703125 21.04101562 C-91.60015748 20.03942437 -87.84604786 18.99550095 -84.140625 17.5234375 C-78.8235666 15.45354453 -73.29432395 14.24185058 -67.75 12.9375 C-66.69425781 12.68162109 -65.63851563 12.42574219 -64.55078125 12.16210938 C-59.28444434 10.90837311 -54.05582837 9.81892347 -48.703125 9.00390625 C-44.47978959 8.33974014 -40.81954442 7.31435198 -36.87744141 5.69580078 C-33.57501856 4.47188594 -30.15544972 3.98198486 -26.6875 3.4375 C-25.19394043 3.19052705 -23.70045076 2.94313097 -22.20703125 2.6953125 C-21.48854004 2.57833008 -20.77004883 2.46134766 -20.02978516 2.34082031 C-17.30130785 1.88268292 -14.58967752 1.34567318 -11.875 0.8125 C-7.80923013 0.0822704 -4.12150443 -0.43845792 0 0 Z " fill="#157347" transform="translate(989,284)"/>
<path d="M0 0 C39.54442527 -0.77369528 39.54442527 -0.77369528 53.625 12.46875 C54.40875 13.3040625 55.1925 14.139375 56 15 C58.64458737 17.35889472 61.3129012 19.68784849 63.98828125 22.01171875 C64.65214844 22.66785156 65.31601562 23.32398438 66 24 C66 24.66 66 25.32 66 26 C66.66 26 67.32 26 68 26 C69.7265625 28.484375 69.7265625 28.484375 71.625 31.75 C72.25664063 32.81734375 72.88828125 33.8846875 73.5390625 34.984375 C75 38 75 38 75 42 C75.66 42 76.32 42 77 42 C80 45.46153846 80 45.46153846 80 48 C80.66 48 81.32 48 82 48 C82.67154933 49.28913487 83.33708859 50.58140204 84 51.875 C84.37125 52.59429687 84.7425 53.31359375 85.125 54.0546875 C86 56 86 56 86 58 C86.66 58 87.32 58 88 58 C88.33 58.99 88.66 59.98 89 61 C90.55705194 62.57840572 90.55705194 62.57840572 92.5 64.125 C96.53819892 67.53858541 100.23778089 71.1942638 103.921875 74.984375 C105.94385057 77.04159392 105.94385057 77.04159392 108.265625 78.640625 C108.83796875 79.08921875 109.4103125 79.5378125 110 80 C110 80.66 110 81.32 110 82 C110.58652344 82.07734375 111.17304687 82.1546875 111.77734375 82.234375 C114.74219461 83.2556593 115.71018689 84.74709817 117.5625 87.25 C118.16835938 88.06726563 118.77421875 88.88453125 119.3984375 89.7265625 C121.06664327 92.09460093 122.59869078 94.46429761 124 97 C124.68718004 98.18768518 125.37470317 99.3751719 126.0625 100.5625 C133.42933903 113.63269827 133.80444409 128.56349341 130 143 C129.34 143 128.68 143 128 143 C127.67 144.65 127.34 146.3 127 148 C126.34 148 125.68 148 125 148 C124.34 150.31 123.68 152.62 123 155 C122.34 155 121.68 155 121 155 C120.7421875 155.59296875 120.484375 156.1859375 120.21875 156.796875 C118.90230105 159.17660965 117.57419218 160.50978792 115.5 162.25 C114.8915625 162.77078125 114.283125 163.2915625 113.65625 163.828125 C112 165 112 165 110 165 C110 165.66 110 166.32 110 167 C106.62902617 168.49821059 104.79557881 169 101 169 C101 169.66 101 170.32 101 171 C100.01 171 99.02 171 98 171 C98 171.66 98 172.32 98 173 C94.42727882 174.19090706 91.54746816 174.12957177 87.77734375 174.1328125 C87.0760585 174.13376923 86.37477325 174.13472595 85.65223694 174.13571167 C84.17204702 174.13639133 82.69185409 174.13455195 81.21166992 174.13037109 C78.94247781 174.12501176 76.6734829 174.13032737 74.40429688 174.13671875 C72.9661454 174.13605809 71.52799404 174.13477717 70.08984375 174.1328125 C68.77878662 174.13168457 67.46772949 174.13055664 66.11694336 174.12939453 C63 174 63 174 61 173 C61 172.34 61 171.68 61 171 C59.2675 170.8453125 59.2675 170.8453125 57.5 170.6875 C53.93355036 170.23471596 50.83633541 169.3173991 47.4921875 167.9609375 C43.39051992 166.37941677 39.1978343 165.06462257 35.01538086 163.71386719 C30.1065431 162.1065431 30.1065431 162.1065431 29 161 C13.32209867 158.68686702 -0.12799456 160.78272514 -14.91015625 165.9765625 C-18 167 -18 167 -20 167 C-20 167.66 -20 168.32 -20 169 C-23.51424239 170.96797574 -27.12952483 171.93228271 -31 173 C-31.94875 173.350625 -32.8975 173.70125 -33.875 174.0625 C-47.37779864 178.11333959 -66.4948481 177.5017173 -80 173 C-80 172.34 -80 171.68 -80 171 C-82.31 170.34 -84.62 169.68 -87 169 C-87 168.34 -87 167.68 -87 167 C-87.55171875 166.79246094 -88.1034375 166.58492187 -88.671875 166.37109375 C-91.85530082 164.49629096 -93.941635 161.8842078 -96.25 159.0625 C-96.93835938 158.25522461 -96.93835938 158.25522461 -97.640625 157.43164062 C-101 153.3773949 -101 153.3773949 -101 150 C-101.66 150 -102.32 150 -103 150 C-103.33 147.69 -103.66 145.38 -104 143 C-104.66 143 -105.32 143 -106 143 C-107.75473768 134.47698842 -107.15588109 125.65598536 -107 117 C-106.98324219 115.9275 -106.96648437 114.855 -106.94921875 113.75 C-106.66017303 108.4645925 -105.29020226 105.07091588 -102.15625 100.7890625 C-100.91318105 98.86566527 -100.43323594 97.2351036 -100 95 C-99.34 95 -98.68 95 -98 95 C-97.79375 94.30519531 -97.5875 93.61039062 -97.375 92.89453125 C-95.55896471 89.07157059 -93.01134053 86.6100628 -90 83.6875 C-89.4534375 83.13771484 -88.906875 82.58792969 -88.34375 82.02148438 C-84.26731366 78 -84.26731366 78 -82 78 C-82 77.34 -82 76.68 -82 76 C-80.52855732 74.71211757 -78.9954285 73.49429673 -77.4375 72.3125 C-70.38879307 66.78918509 -65.30473705 61.84077106 -61 54 C-60.01 53.34 -59.02 52.68 -58 52 C-56.46433216 49.67343397 -56.46433216 49.67343397 -55.0625 46.9375 C-54.5365625 45.94878906 -54.010625 44.96007812 -53.46875 43.94140625 C-52.22239943 41.44539035 -51.11809731 38.95484342 -50.0625 36.375 C-46.69822015 28.58988959 -40.544314 21.37013629 -34 16 C-33.34 16 -32.68 16 -32 16 C-32 15.34 -32 14.68 -32 14 C-30.15962777 12.5911026 -28.25028296 11.27159702 -26.3125 10 C-24.72888672 8.948125 -24.72888672 8.948125 -23.11328125 7.875 C-15.77467052 3.45525954 -8.49874752 1.70179833 0 2 C0 1.34 0 0.68 0 0 Z " fill="#157347" transform="translate(614,187)"/>
<path d="M0 0 C1.69455849 1.29770069 3.36630523 2.62646553 5 4 C6.2684375 4.7115625 6.2684375 4.7115625 7.5625 5.4375 C10.41886542 7.26850347 11.94975317 9.30905104 14 12 C15.2684375 13.2375 15.2684375 13.2375 16.5625 14.5 C21.10677921 19.16079919 22.91638904 24.30715207 24.9375 30.37890625 C25.9960664 32.99029615 27.26075548 34.80479138 29 37 C30.94989623 41.54975788 31.39133578 45.94452281 31.75390625 50.828125 C31.87904151 53.0444726 31.87904151 53.0444726 33 55 C33.96010481 64.47180321 31.8198312 73.7600237 30 83 C29.34 83 28.68 83 28 83 C27.87625 84.051875 27.7525 85.10375 27.625 86.1875 C26.84438815 90.94923229 25.98408981 94.97209174 22 98 C21.01 98 20.02 98 19 98 C18.62875 98.86625 18.62875 98.86625 18.25 99.75 C16.81700012 102.32939979 15.21575324 104.06121592 13 106 C12.34 106 11.68 106 11 106 C11 106.66 11 107.32 11 108 C10.34 108 9.68 108 9 108 C9 108.66 9 109.32 9 110 C-0.38623211 115.14007949 -12.64680371 115.48476711 -23 113 C-25.45900966 111.80836493 -27.67690429 110.45762868 -30 109 C-30.66 108.67 -31.32 108.34 -32 108 C-32 107.34 -32 106.68 -32 106 C-32.66 106 -33.32 106 -34 106 C-34 105.34 -34 104.68 -34 104 C-34.88945313 103.85884766 -34.88945313 103.85884766 -35.796875 103.71484375 C-38.49142641 102.84054781 -39.46322756 101.73279682 -41.25 99.5625 C-41.77078125 98.94503906 -42.2915625 98.32757813 -42.828125 97.69140625 C-44 96 -44 96 -44 94 C-44.61359375 93.7628125 -45.2271875 93.525625 -45.859375 93.28125 C-48.5345995 91.68002074 -49.08163226 90.35601003 -50.25 87.5 C-50.58515625 86.7059375 -50.9203125 85.911875 -51.265625 85.09375 C-52 83 -52 83 -52 81 C-52.66 81 -53.32 81 -54 81 C-54.80157758 79.19186125 -55.59069175 77.37819627 -56.375 75.5625 C-57.03628906 74.04849609 -57.03628906 74.04849609 -57.7109375 72.50390625 C-60.6427373 64.53474134 -61.36383183 57.0223863 -61.375 48.5625 C-61.41173828 47.10360352 -61.41173828 47.10360352 -61.44921875 45.61523438 C-61.47386118 39.46694781 -60.53089227 34.78519231 -57.95947266 29.18994141 C-57.02430398 27.05547244 -56.48293505 25.08625142 -56 22.8125 C-54.60255001 17.48472193 -52.05254705 13.57882058 -49 9 C-48.34 9 -47.68 9 -47 9 C-46.34 7.68 -45.68 6.36 -45 5 C-44.34 5 -43.68 5 -43 5 C-43 4.34 -43 3.68 -43 3 C-40.3483994 1.62509599 -37.68986522 0.29674284 -35 -1 C-34.22914063 -1.3815625 -33.45828125 -1.763125 -32.6640625 -2.15625 C-21.26116619 -7.32261079 -10.97716364 -5.59909018 0 0 Z " fill="#157347" transform="translate(581,62)"/>
<path d="M0 0 C12.55013029 7.50374923 19.31834806 19.11287923 23.74658203 32.66064453 C25.13743957 38.353089 24.98382932 43.92480308 24.8125 49.75 C24.79445313 50.9359375 24.77640625 52.121875 24.7578125 53.34375 C24.71125918 56.23005565 24.64589409 59.11456452 24.5625 62 C23.9025 62 23.2425 62 22.5625 62 C22.60375 62.804375 22.645 63.60875 22.6875 64.4375 C22.39340684 72.81915513 20.13030298 81.51037457 13.96484375 87.5703125 C12.29898597 89.05961325 12.29898597 89.05961325 11.5625 92 C10.9025 92 10.2425 92 9.5625 92 C9.50707031 92.72960937 9.45164062 93.45921875 9.39453125 94.2109375 C8.26368162 98.00167287 6.35596789 99.23073072 3.25 101.625 C2.28449219 102.38039063 1.31898438 103.13578125 0.32421875 103.9140625 C-0.58714844 104.60242188 -1.49851562 105.29078125 -2.4375 106 C-3.15292969 106.58523437 -3.86835937 107.17046875 -4.60546875 107.7734375 C-6.4375 109 -6.4375 109 -9.4375 109 C-9.4375 109.66 -9.4375 110.32 -9.4375 111 C-16.10390947 116.0503102 -25.41359072 115.7376016 -33.4375 115 C-38.95521382 113.60153301 -43.45308291 112.10860672 -47.4375 108 C-48.6440625 107.29037109 -48.6440625 107.29037109 -49.875 106.56640625 C-59.46561633 100.70384962 -64.58289443 90.15759748 -67.25 79.625 C-71.15444282 59.12109744 -68.38488494 38.86454519 -57.4375 21 C-55.30859375 18.0390625 -55.30859375 18.0390625 -53.4375 16 C-52.7775 16 -52.1175 16 -51.4375 16 C-51.4375 15.34 -51.4375 14.68 -51.4375 14 C-50.7775 14 -50.1175 14 -49.4375 14 C-49.1075 12.68 -48.7775 11.36 -48.4375 10 C-47.7775 10 -47.1175 10 -46.4375 10 C-46.4375 9.34 -46.4375 8.68 -46.4375 8 C-33.07255302 -3.73868131 -16.30011949 -8.0786932 0 0 Z " fill="#157347" transform="translate(707.4375,61)"/>
<path d="M0 0 C0.76957031 0.54140625 0.76957031 0.54140625 1.5546875 1.09375 C1.5546875 1.75375 1.5546875 2.41375 1.5546875 3.09375 C2.1321875 3.34125 2.7096875 3.58875 3.3046875 3.84375 C7.04066113 5.91929091 9.19860065 8.02548944 10.5546875 12.09375 C11.1940625 12.7125 11.8334375 13.33125 12.4921875 13.96875 C18.70701984 20.37191059 17.64228633 30.48369869 17.6796875 38.84375 C17.68436035 39.5769043 17.6890332 40.31005859 17.69384766 41.06542969 C17.68256108 44.8664009 17.47100866 48.39937578 16.5546875 52.09375 C15.8946875 52.09375 15.2346875 52.09375 14.5546875 52.09375 C14.47992187 52.66480469 14.40515625 53.23585937 14.328125 53.82421875 C12.86927177 62.82048036 9.74804395 73.06530957 2.5546875 79.09375 C1.8946875 79.09375 1.2346875 79.09375 0.5546875 79.09375 C0.1834375 79.95226562 0.1834375 79.95226562 -0.1953125 80.828125 C-1.63847449 83.44385611 -3.32747472 85.24148456 -5.4453125 87.34375 C-6.4971875 88.40335938 -6.4971875 88.40335938 -7.5703125 89.484375 C-9.4453125 91.09375 -9.4453125 91.09375 -11.4453125 91.09375 C-11.4453125 91.75375 -11.4453125 92.41375 -11.4453125 93.09375 C-15.4053125 94.08375 -15.4053125 94.08375 -19.4453125 95.09375 C-19.4453125 95.75375 -19.4453125 96.41375 -19.4453125 97.09375 C-25.00091479 99.9306533 -29.93018806 100.42131047 -36.0703125 100.46875 C-36.79855225 100.48228516 -37.52679199 100.49582031 -38.27709961 100.50976562 C-43.05529291 100.47060456 -46.2491901 99.59553907 -50.4453125 97.09375 C-50.4453125 96.43375 -50.4453125 95.77375 -50.4453125 95.09375 C-51.4353125 95.09375 -52.4253125 95.09375 -53.4453125 95.09375 C-53.4453125 94.43375 -53.4453125 93.77375 -53.4453125 93.09375 C-54.3115625 93.09375 -55.1778125 93.09375 -56.0703125 93.09375 C-60.89893101 91.66304822 -63.06460331 88.43305682 -65.4453125 84.09375 C-65.4453125 83.10375 -65.4453125 82.11375 -65.4453125 81.09375 C-66.1053125 81.09375 -66.7653125 81.09375 -67.4453125 81.09375 C-73.40765029 66.89060962 -74.2395193 54.57926699 -68.4453125 40.09375 C-67.70534696 37.10854655 -67.06231336 34.10655207 -66.4453125 31.09375 C-65.7853125 31.09375 -65.1253125 31.09375 -64.4453125 31.09375 C-64.3215625 30.536875 -64.1978125 29.98 -64.0703125 29.40625 C-63.38554395 26.87260636 -62.45397487 24.51453968 -61.4453125 22.09375 C-60.7853125 22.09375 -60.1253125 22.09375 -59.4453125 22.09375 C-59.208125 21.36800781 -58.9709375 20.64226562 -58.7265625 19.89453125 C-57.2463903 16.65891091 -55.48124776 14.76366715 -52.9453125 12.28125 C-52.15125 11.49105469 -51.3571875 10.70085937 -50.5390625 9.88671875 C-48.4453125 8.09375 -48.4453125 8.09375 -46.4453125 8.09375 C-46.4453125 7.43375 -46.4453125 6.77375 -46.4453125 6.09375 C-34.07294162 -4.59842236 -14.46089023 -8.7641759 0 0 Z " fill="#157347" transform="translate(789.4453125,154.90625)"/>
<path d="M0 0 C2.50348691 1.96157359 4.87900848 4.01396759 7.25 6.1328125 C7.97058594 6.71160156 8.69117188 7.29039062 9.43359375 7.88671875 C16.5713338 13.70215535 20.92222034 20.57566481 24.25 29.1328125 C24.765625 30.1228125 25.28125 31.1128125 25.8125 32.1328125 C30.77152506 43.82567158 31.34781441 61.35493579 27.0625 73.1328125 C23.57711812 81.08963668 20.24996452 86.35101109 12.25 90.1328125 C11.46625 90.3184375 10.6825 90.5040625 9.875 90.6953125 C9.070625 90.911875 9.070625 90.911875 8.25 91.1328125 C7.755 92.6178125 7.755 92.6178125 7.25 94.1328125 C-1.49384507 97.45547363 -12.57298953 97.74111153 -21.3125 94.3828125 C-26.46142557 91.9623043 -30.71897512 89.16383738 -34.75 85.1328125 C-36.235 84.6378125 -36.235 84.6378125 -37.75 84.1328125 C-37.75 83.4728125 -37.75 82.8128125 -37.75 82.1328125 C-38.41 82.1328125 -39.07 82.1328125 -39.75 82.1328125 C-40.1625 81.4315625 -40.575 80.7303125 -41 80.0078125 C-42.85845694 76.95463325 -44.90841237 74.93424175 -47.54296875 72.5625 C-48.75 71.1328125 -48.75 71.1328125 -48.75 68.1328125 C-49.74 67.8028125 -50.73 67.4728125 -51.75 67.1328125 C-52.88927473 64.80472937 -53.82462705 62.54492208 -54.75 60.1328125 C-55.09417969 59.36195313 -55.43835938 58.59109375 -55.79296875 57.796875 C-58.40476397 51.81897547 -59.5491878 46.6341076 -59.75 40.1328125 C-59.77578125 39.45589355 -59.8015625 38.77897461 -59.828125 38.08154297 C-60.28969024 24.69903574 -59.42327284 14.92350406 -50.75 4.1328125 C-37.32313628 -10.05049425 -15.81654482 -10.73907446 0 0 Z " fill="#157347" transform="translate(504.75,158.8671875)"/>
<path d="M0 0 C2.38778902 3.58168353 2.40145481 6.41067642 2.5625 10.5625 C2.6058018 15.42985649 2.6058018 15.42985649 4 20 C4.52544616 24.80327547 4.76008022 29.63396631 5.04296875 34.45703125 C5.0872167 35.20231394 5.13146465 35.94759663 5.17705345 36.71546364 C6.22670754 54.86352056 6.34061793 73.00422651 6.31567383 91.17797852 C6.3110243 94.85648771 6.31805911 98.53466762 6.33618164 102.21313477 C6.44748564 125.02121104 5.75076386 147.34436513 3 170 C2.78783468 171.85096895 2.57715451 173.70210914 2.3684082 175.5534668 C1.20933986 185.79066014 1.20933986 185.79066014 0 187 C-0.36760731 189.32817964 -0.70241581 191.6618385 -1 194 C-1.33 194 -1.66 194 -2 194 C-2.09765625 187.84765625 -2.09765625 187.84765625 -2 186 C-1.67 185.67 -1.34 185.34 -1 185 C-0.78964095 182.87887958 -0.63149899 180.75246581 -0.5 178.625 C-0.28419953 175.14907092 -0.1024508 172.3073524 1 169 C1.21012466 166.42816172 1.37458662 163.87290852 1.5 161.296875 C1.54060547 160.54085999 1.58121094 159.78484497 1.62304688 159.00592041 C1.75263902 156.58746927 1.87682332 154.16878579 2 151.75 C2.12352935 149.3455206 2.24834259 146.94113952 2.37695312 144.53692627 C2.45682747 143.04225386 2.53382009 141.54742362 2.60742188 140.0524292 C2.77326162 136.93538757 3.01645824 133.89941416 3.52075195 130.81738281 C4.23705795 125.11174827 4.16241721 119.43248038 4.16796875 113.6875 C4.17206757 112.380728 4.17616638 111.07395599 4.1803894 109.72758484 C4.18970076 106.21017086 4.19078065 102.69280492 4.18867874 99.17538071 C4.18749988 96.99978226 4.18803074 94.82418867 4.18869019 92.64859009 C4.18753924 74.97862171 4.02652696 57.33610584 3.0625 39.6875 C3.01902435 38.88030518 2.97554871 38.07311035 2.93075562 37.24145508 C2.68196564 28.99698104 2.68196564 28.99698104 1 21 C0.85284801 19.37432921 0.75278133 17.74413143 0.68359375 16.11328125 C0.64169922 15.17548828 0.59980469 14.23769531 0.55664062 13.27148438 C0.51732422 12.29501953 0.47800781 11.31855469 0.4375 10.3125 C0.37272461 8.83040039 0.37272461 8.83040039 0.30664062 7.31835938 C0.20058346 4.87904454 0.09852286 2.43962887 0 0 Z " fill="#157347" transform="translate(996,339)"/>
<path d="M0 0 C0.33 0 0.66 0 1 0 C1.02505615 1.30743164 1.0501123 2.61486328 1.07592773 3.96191406 C1.63587607 34.26604055 1.63587607 34.26604055 2.5 64.5625 C2.53536865 65.65143555 2.5707373 66.74037109 2.60717773 67.86230469 C2.79670211 72.98651297 3.25386397 77.92277746 4 83 C4.28654301 87.16239099 4.43798031 91.33139888 4.60546875 95.5 C4.64285156 96.32242188 4.68023437 97.14484375 4.71875 97.9921875 C4.74904297 98.73839355 4.77933594 99.48459961 4.81054688 100.25341797 C4.81837366 102.0272837 4.81837366 102.0272837 6 103 C6.1896297 104.74579722 6.32510367 106.49753476 6.4375 108.25 C6.49383738 119.32570134 6.49383738 119.32570134 10 129 C10.07205511 130.68608966 10.08386068 132.37500659 10.0625 134.0625 C10.05347656 134.98160156 10.04445313 135.90070313 10.03515625 136.84765625 C10.02355469 137.55792969 10.01195312 138.26820313 10 139 C9.67 139 9.34 139 9 139 C9 136.03 9 133.06 9 130 C8.34 130 7.68 130 7 130 C6.79503906 128.73542969 6.59007812 127.47085938 6.37890625 126.16796875 C6.10689979 124.50779137 5.83475728 122.84763627 5.5625 121.1875 C5.42779297 120.35412109 5.29308594 119.52074219 5.15429688 118.66210938 C5.02216797 117.85966797 4.89003906 117.05722656 4.75390625 116.23046875 C4.63345947 115.49207764 4.5130127 114.75368652 4.38891602 113.99291992 C4.00606924 111.80376404 4.00606924 111.80376404 3 109 C2.29874061 103.35118616 1.87615138 97.67451624 1.4375 92 C1.3347023 90.68156097 1.3347023 90.68156097 1.22982788 89.33648682 C-0.99103759 59.63904344 -0.26569741 29.75770826 0 0 Z " fill="#157347" transform="translate(253,399)"/>
<path d="M0 0 C0.33 0 0.66 0 1 0 C0.22095672 13.6332574 0.22095672 13.6332574 -2 20 C-0.02 20.33 1.96 20.66 4 21 C1.7026581 27.76439558 -1.47558505 33.79520475 -5 40 C-5.66 40 -6.32 40 -7 40 C-7 40.99 -7 41.98 -7 43 C-7.66 43 -8.32 43 -9 43 C-9.36697028 35.60707797 -8.07835555 29.51046223 -6 22.4375 C-5.71382812 21.42880859 -5.42765625 20.42011719 -5.1328125 19.38085938 C-4.43229533 16.917374 -3.72122895 14.45748534 -3 12 C-2.34 12 -1.68 12 -1 12 C-1.020625 10.7625 -1.04125 9.525 -1.0625 8.25 C-1.06766681 5.3359175 -0.93015558 2.79046673 0 0 Z " fill="#157347" transform="translate(654,683)"/>
<path d="M0 0 C0.99 0.33 1.98 0.66 3 1 C-6.57 10.57 -16.14 20.14 -26 30 C-26.99 29.67 -27.98 29.34 -29 29 C-27.5484451 27.32742645 -26.08855591 25.66208242 -24.625 24 C-23.81289063 23.071875 -23.00078125 22.14375 -22.1640625 21.1875 C-21.44992187 20.465625 -20.73578125 19.74375 -20 19 C-19.34 19 -18.68 19 -18 19 C-17.62875 18.14148438 -17.62875 18.14148438 -17.25 17.265625 C-15.80683801 14.64989389 -14.11783778 12.85226544 -12 10.75 C-11.29875 10.04359375 -10.5975 9.3371875 -9.875 8.609375 C-8 7 -8 7 -6 7 C-6 6.34 -6 5.68 -6 5 C-5.34 5 -4.68 5 -4 5 C-4 4.34 -4 3.68 -4 3 C-2.1875 1.3125 -2.1875 1.3125 0 0 Z " fill="#157347" transform="translate(805,502)"/>
<path d="M0 0 C0.33 1.32 0.66 2.64 1 4 C1.66 4 2.32 4 3 4 C3.33 3.01 3.66 2.02 4 1 C2.93434879 9.25879689 -1.89030701 16.88909443 -5.62548828 24.21459961 C-6.9330932 26.79126572 -8.08437894 29.25313683 -9 32 C-9.99 32 -10.98 32 -12 32 C-9.80962826 25.27954125 -7.44234339 18.63275997 -5 12 C-4.34 12 -3.68 12 -3 12 C-2.67 9.36 -2.34 6.72 -2 4 C-1.34 4 -0.68 4 0 4 C0 2.68 0 1.36 0 0 Z " fill="#157347" transform="translate(644,722)"/>
<path d="M0 0 C0.66 0.33 1.32 0.66 2 1 C1.34 2.98 0.68 4.96 0 7 C5.03565714 6.73813516 10.0710295 6.47147891 15.10620117 6.20043945 C16.81804582 6.10896189 18.52996017 6.01877871 20.24194336 5.92993164 C22.7070647 5.80177111 25.17189536 5.66891049 27.63671875 5.53515625 C28.39836838 5.49656998 29.16001801 5.4579837 29.94474792 5.41822815 C33.71948339 5.20880647 37.30968878 4.81334728 41 4 C42.76977761 3.93540958 44.54170152 3.91388935 46.3125 3.9375 C47.63701172 3.95103516 47.63701172 3.95103516 48.98828125 3.96484375 C49.98408203 3.98224609 49.98408203 3.98224609 51 4 C51 4.33 51 4.66 51 5 C45.68121574 6.45609584 40.65071845 7.35796475 35.1328125 7.6328125 C34.41318329 7.67437469 33.69355408 7.71593689 32.95211792 7.75875854 C31.44142333 7.844563 29.93051781 7.9267261 28.41943359 8.00537109 C26.13716718 8.12436562 23.85575548 8.25453409 21.57421875 8.38671875 C14.04399551 8.81091332 6.54470315 9.10499587 -1 9 C-0.67 6.03 -0.34 3.06 0 0 Z " fill="#157347" transform="translate(659,797)"/>
<path d="M0 0 C0.33 0 0.66 0 1 0 C0.36936917 20.35963434 -0.73373725 40.67159838 -2 61 C-2.33 61 -2.66 61 -3 61 C-3.02477487 55.96460323 -3.04289549 50.92924219 -3.05493164 45.89379883 C-3.05995099 44.18187848 -3.06676785 42.46996239 -3.07543945 40.75805664 C-3.08761021 38.29312078 -3.09325238 35.82824175 -3.09765625 33.36328125 C-3.10281754 32.60163162 -3.10797882 31.83998199 -3.11329651 31.05525208 C-3.11369796 27.22649505 -2.85375693 23.72841151 -2 20 C-1.87572784 18.63524832 -1.78093156 17.26742405 -1.71875 15.8984375 C-1.68136719 15.16109375 -1.64398438 14.42375 -1.60546875 13.6640625 C-1.53479705 12.13022484 -1.46448818 10.59637042 -1.39453125 9.0625 C-1.23036328 5.83575019 -1.0271544 3.08146319 0 0 Z " fill="#157347" transform="translate(257,338)"/>
<path d="M0 0 C4.26860135 4.26860135 4.32818762 10.09395567 4.75390625 15.828125 C4.87904151 18.0444726 4.87904151 18.0444726 6 20 C6.96010481 29.47180321 4.8198312 38.7600237 3 48 C2.67 48 2.34 48 2 48 C2.33 35.46 2.66 22.92 3 10 C2.34 10 1.68 10 1 10 C0.67 6.7 0.34 3.4 0 0 Z " fill="#157347" transform="translate(608,97)"/>
<path d="M0 0 C2.42479736 3.63719605 2.38662577 5.85703482 2.625 10.1875 C2.69976563 11.45980469 2.77453125 12.73210937 2.8515625 14.04296875 C2.90054688 15.01878906 2.94953125 15.99460937 3 17 C0.86413322 13.79619983 0.76867825 12.98060033 0.875 9.3125 C0.89304687 8.50425781 0.91109375 7.69601562 0.9296875 6.86328125 C0.95289063 6.24839844 0.97609375 5.63351562 1 5 C0.34 5 -0.32 5 -1 5 C-1 4.01 -1 3.02 -1 2 C-1.95777344 2.14622803 -2.91554688 2.29245605 -3.90234375 2.44311523 C-7.48795443 2.99025644 -11.07377955 3.53598113 -14.65966797 4.08129883 C-16.20562441 4.31659514 -17.75152402 4.55226515 -19.29736328 4.78833008 C-21.53142353 5.12942449 -23.76569112 5.46913219 -26 5.80859375 C-26.68054443 5.91280136 -27.36108887 6.01700897 -28.06225586 6.12437439 C-32.70060818 6.82726763 -37.34348221 7.43385111 -42 8 C-39.1275783 6.0850522 -37.77841495 5.59607545 -34.5 5 C-33.17669678 4.7539502 -33.17669678 4.7539502 -31.82666016 4.50292969 C-30.42746338 4.25397949 -30.42746338 4.25397949 -29 4 C-28.05044434 3.82629883 -27.10088867 3.65259766 -26.12255859 3.47363281 C-24.24982441 3.13150177 -22.37662471 2.79190733 -20.50292969 2.45507812 C-18.47024032 2.08549824 -16.4414708 1.69440604 -14.4140625 1.296875 C-9.55001231 0.34313967 -4.95534964 -0.52716486 0 0 Z " fill="#157347" transform="translate(989,284)"/>
<path d="M0 0 C1.30660357 4.29727397 0.6596762 7.60215865 0 12 C-0.66 12 -1.32 12 -2 12 C-1.979375 13.299375 -1.95875 14.59875 -1.9375 15.9375 C-1.91600546 17.29165633 -1.92851801 18.64756083 -2 20 C-2.33 20.33 -2.66 20.66 -3 21 C-3.33602598 22.31279832 -3.62774035 23.63703506 -3.8984375 24.96484375 C-4.9504187 29.89002845 -6.25339853 34.7180355 -7.625 39.5625 C-7.85445312 40.38041016 -8.08390625 41.19832031 -8.3203125 42.04101562 C-8.8780488 44.0279512 -9.43871096 46.01406511 -10 48 C-10.66 48 -11.32 48 -12 48 C-11.95875 48.94875 -11.9175 49.8975 -11.875 50.875 C-12 54 -12 54 -14 56 C-13.67 53.03 -13.34 50.06 -13 47 C-12.34 47 -11.68 47 -11 47 C-10.2717552 42.00632136 -9.61512818 37.00890086 -9 32 C-8.34 32 -7.68 32 -7 32 C-6.89042969 31.0821875 -6.78085937 30.164375 -6.66796875 29.21875 C-5.88630056 23.16876533 -5.13722579 17.57296377 -2.73046875 11.953125 C-1.29353345 8.111052 -0.70197602 4.03016824 0 0 Z " fill="#157347" transform="translate(993,535)"/>
<path d="M0 0 C2.38778902 3.58168353 2.40145481 6.41067642 2.5625 10.5625 C2.6058018 15.42985649 2.6058018 15.42985649 4 20 C5.80212097 34.19448366 5.09708862 48.73095948 5 63 C4.67 63 4.34 63 4 63 C3.94465088 61.83428467 3.88930176 60.66856934 3.83227539 59.4675293 C3.62594216 55.1455381 3.41403634 50.82383507 3.20043945 46.50219727 C3.10874667 44.63117756 3.01856844 42.76008299 2.92993164 40.88891602 C2.80231791 38.20047254 2.66927263 35.5123447 2.53515625 32.82421875 C2.49656998 31.98662521 2.4579837 31.14903168 2.41822815 30.28605652 C2.24946461 26.98990493 2.04903917 24.1471175 1 21 C0.85284801 19.37432921 0.75278133 17.74413143 0.68359375 16.11328125 C0.64169922 15.17548828 0.59980469 14.23769531 0.55664062 13.27148438 C0.51732422 12.29501953 0.47800781 11.31855469 0.4375 10.3125 C0.39431641 9.32443359 0.35113281 8.33636719 0.30664062 7.31835938 C0.20058346 4.87904454 0.09852286 2.43962887 0 0 Z " fill="#157347" transform="translate(996,339)"/>
<path d="M0 0 C0 2.87819126 -0.3684204 4.36894046 -1.375 7 C-1.63023437 7.680625 -1.88546875 8.36125 -2.1484375 9.0625 C-3 11 -3 11 -5 14 C-5.73834471 16.08686863 -6.41991961 18.19418367 -7.0625 20.3125 C-7.40410156 21.42238281 -7.74570312 22.53226563 -8.09765625 23.67578125 C-9.83171087 30.06400844 -10.26024933 36.29485437 -10.5625 42.875 C-10.62727539 44.19371094 -10.62727539 44.19371094 -10.69335938 45.5390625 C-10.79869339 47.69255797 -10.89977649 49.84626064 -11 52 C-11.33 52 -11.66 52 -12 52 C-12.52538916 32.83302519 -10.58003042 17.88319262 -1 1 C-0.67 0.67 -0.34 0.34 0 0 Z " fill="#157347" transform="translate(651,81)"/>
<path d="M0 0 C0.66 0 1.32 0 2 0 C2 0.99 2 1.98 2 3 C1.34 3 0.68 3 0 3 C-0.09667969 3.5878125 -0.19335938 4.175625 -0.29296875 4.78125 C-1.14582333 7.45761133 -2.27910826 8.58417053 -4.3125 10.5 C-4.94414063 11.1084375 -5.57578125 11.716875 -6.2265625 12.34375 C-7.53975537 13.57016801 -8.86139208 14.78755848 -10.1875 16 C-11.88318713 17.87110304 -12.8365052 19.47281684 -14 21.6875 C-16 25 -16 25 -18.25 25.9375 C-18.8275 25.958125 -19.405 25.97875 -20 26 C-18.31906944 22.23617723 -15.95783133 19.03234344 -13.5 15.75 C-13.09652344 15.19570313 -12.69304688 14.64140625 -12.27734375 14.0703125 C-11.23549829 12.67430835 -10.12254588 11.33197608 -9 10 C-8.34 10 -7.68 10 -7 10 C-6.773125 9.46375 -6.54625 8.9275 -6.3125 8.375 C-4.54429911 5.17539839 -2.46329797 2.70962777 0 0 Z " fill="#157347" transform="translate(672,433)"/>
<path d="M0 0 C3.22598121 2.70982421 4.86106476 6.22753927 6.6875 9.9375 C7.02837646 10.62682617 7.36925293 11.31615234 7.72045898 12.02636719 C10.54262003 17.84735644 13.10824718 23.76547036 15.5625 29.75 C15.92110107 30.607146 16.27970215 31.46429199 16.64916992 32.34741211 C16.97248291 33.15573486 17.2957959 33.96405762 17.62890625 34.796875 C17.91838135 35.51198242 18.20785645 36.22708984 18.50610352 36.96386719 C19.07969089 39.32853288 18.76903025 40.71887485 18 43 C17.32942113 41.2097939 16.6636531 39.41778511 16 37.625 C15.62875 36.62726562 15.2575 35.62953125 14.875 34.6015625 C14 32 14 32 14 30 C13.34 30 12.68 30 12 30 C11.70867188 29.04480469 11.41734375 28.08960938 11.1171875 27.10546875 C8.79167481 19.69938351 6.23301931 12.97859683 2.234375 6.26953125 C1.0804839 4.1479783 0.455443 2.35854411 0 0 Z " fill="#157347" transform="translate(630,499)"/>
<path d="M0 0 C2 1 2 1 3.1171875 3.72265625 C4.62654238 9.50162459 4.2090238 15.51382235 4.125 21.4375 C4.11597656 22.64599609 4.10695313 23.85449219 4.09765625 25.09960938 C4.07420168 28.06661278 4.04137794 31.03320143 4 34 C3.34 34 2.68 34 2 34 C2 35.98 2 37.96 2 40 C1.67 40 1.34 40 1 40 C1.00523682 39.17910889 1.01047363 38.35821777 1.01586914 37.51245117 C1.03309918 34.41300729 1.04554042 31.31358813 1.05493164 28.21411133 C1.0623244 26.23452108 1.07504274 24.25495299 1.08789062 22.27539062 C1.10684583 14.78808436 0.86051378 7.44000023 0 0 Z " fill="#157347" transform="translate(728,89)"/>
<path d="M0 0 C0.33 0 0.66 0 1 0 C1.03758423 0.97271851 1.03758423 0.97271851 1.07592773 1.96508789 C1.55842867 14.32302002 2.07103814 26.66654899 3 39 C-1.71465763 31.92801355 -1.28787207 23.41272671 -1.1875 15.1875 C-1.18685547 14.16462891 -1.18621094 13.14175781 -1.18554688 12.08789062 C-1.13732038 3.90546175 -1.13732038 3.90546175 0 0 Z " fill="#157347" transform="translate(521,95)"/>
<path d="M0 0 C0.33 0 0.66 0 1 0 C0.98428955 0.60884033 0.9685791 1.21768066 0.95239258 1.8449707 C0.34398503 16.6908366 0.34398503 16.6908366 3.44140625 31.07421875 C4 33 4 33 3 36 C-2.21940376 23.56663461 -3.59149824 13.24364975 0 0 Z " fill="#157347" transform="translate(719,200)"/>
<path d="M0 0 C0.76441406 -0.02449219 1.52882813 -0.04898438 2.31640625 -0.07421875 C8.24962511 -0.10443888 11.99293402 1.41734011 17.125 4.375 C15.125 5.375 15.125 5.375 11.375 4.4375 C2.16711513 2.23948877 -7.57543565 3.09230147 -16.875 4.375 C-12.2979097 -0.2020903 -6.08658375 0.01016124 0 0 Z " fill="#157347" transform="translate(771.875,150.625)"/>
<path d="M0 0 C-1 1 -1 1 -4.0625 1.0625 C-5.031875 1.041875 -6.00125 1.02125 -7 1 C-7 1.66 -7 2.32 -7 3 C-9.85222385 3.67608269 -12.70631293 4.34105115 -15.5625 5 C-16.76229492 5.28617188 -16.76229492 5.28617188 -17.98632812 5.578125 C-22.78345532 6.67461122 -27.08016034 7.21132197 -32 7 C-29.2851428 4.2851428 -27.20918771 4.43017929 -23.4375 3.9375 C-19.39570148 3.7309998 -19.39570148 3.7309998 -16 2 C-14.96875 1.855625 -13.9375 1.71125 -12.875 1.5625 C-8.97028887 1.08952552 -8.97028887 1.08952552 -5.1875 -0.125 C-2 -1 -2 -1 0 0 Z " fill="#157347" transform="translate(757,791)"/>
<path d="M0 0 C0.66 0.33 1.32 0.66 2 1 C0.92492371 2.29854721 -0.16043736 3.58858361 -1.25 4.875 C-1.85328125 5.59429687 -2.4565625 6.31359375 -3.078125 7.0546875 C-4.97087634 8.97052118 -6.53657727 9.96449045 -9 11 C-9 11.99 -9 12.98 -9 14 C-11.50823147 16.77939163 -13.88157129 18.92104752 -17 21 C-13.58283505 13.76459441 -8.17321781 7.09131366 -2 2 C-1.34 2 -0.68 2 0 2 C0 1.34 0 0.68 0 0 Z " fill="#157347" transform="translate(582,201)"/>
<path d="M0 0 C9.9 0 19.8 0 30 0 C30 0.33 30 0.66 30 1 C19.9733783 3.25046419 9.80935033 4.69500192 0 1 C0 0.67 0 0.34 0 0 Z " fill="#157347" transform="translate(546,362)"/>
<path d="M0 0 C1.15957207 3.47871621 0.77456651 4.34219645 -0.4375 7.6875 C-0.72496094 8.49574219 -1.01242187 9.30398438 -1.30859375 10.13671875 C-1.53675781 10.75160156 -1.76492188 11.36648438 -2 12 C-2.66 12 -3.32 12 -4 12 C-4.103125 12.763125 -4.20625 13.52625 -4.3125 14.3125 C-5.04364039 17.17059424 -5.76951913 18.15742885 -8 20 C-6.27241943 12.93262493 -3.24620638 6.49241276 0 0 Z " fill="#157347" transform="translate(679,752)"/>
<path d="M0 0 C0.33 0 0.66 0 1 0 C0.65026327 7.80274695 -0.04230666 14.7415791 -3 22 C-3.5878125 23.5159375 -3.5878125 23.5159375 -4.1875 25.0625 C-4.455625 25.701875 -4.72375 26.34125 -5 27 C-6.23922223 23.28233332 -5.57018942 21.56110463 -4.5625 17.8125 C-4.27503906 16.72582031 -3.98757813 15.63914062 -3.69140625 14.51953125 C-3.46324219 13.68808594 -3.23507812 12.85664062 -3 12 C-2.34 12 -1.68 12 -1 12 C-1.020625 10.7625 -1.04125 9.525 -1.0625 8.25 C-1.06766681 5.3359175 -0.93015558 2.79046673 0 0 Z " fill="#157347" transform="translate(654,683)"/>
<path d="M0 0 C0 2.85602507 -0.3622683 4.48384316 -1.3125 7.125 C-1.55613281 7.82882812 -1.79976562 8.53265625 -2.05078125 9.2578125 C-3 11 -3 11 -6 12 C-7.11680706 14.84979639 -7.11680706 14.84979639 -8 18 C-8.63815344 19.34721283 -9.29325371 20.68747118 -10 22 C-10.66 21.67 -11.32 21.34 -12 21 C-10.38105631 17.87182616 -8.75382589 14.74803807 -7.125 11.625 C-6.66480469 10.73554687 -6.20460938 9.84609375 -5.73046875 8.9296875 C-5.28574219 8.07890625 -4.84101562 7.228125 -4.3828125 6.3515625 C-3.97434082 5.56604004 -3.56586914 4.78051758 -3.14501953 3.97119141 C-2 2 -2 2 0 0 Z " fill="#157347" transform="translate(715,681)"/>
<path d="M0 0 C0.66 0.33 1.32 0.66 2 1 C-1.37607126 4.6739599 -4.39120786 7.05406554 -9 9 C-9.66 9 -10.32 9 -11 9 C-11.33 9.99 -11.66 10.98 -12 12 C-13.32 11.67 -14.64 11.34 -16 11 C-10.72 7.37 -5.44 3.74 0 0 Z " fill="#157347" transform="translate(755,365)"/>
<path d="M0 0 C0.51484621 2.05938485 1.02107885 4.10539426 1.4375 6.1875 C1.623125 6.785625 1.80875 7.38375 2 8 C2.66 8.33 3.32 8.66 4 9 C3.34 10.32 2.68 11.64 2 13 C1.34 13 0.68 13 0 13 C0 13.99 0 14.98 0 16 C-0.66 16 -1.32 16 -2 16 C-2.2358396 10.22192976 -1.86783046 5.48675196 0 0 Z " fill="#157347" transform="translate(647,710)"/>
<path d="M0 0 C0 0.99 0 1.98 0 3 C-0.66 3 -1.32 3 -2 3 C-2.09152344 3.59296875 -2.18304687 4.1859375 -2.27734375 4.796875 C-3.17232113 7.52534657 -4.33906301 8.47125041 -6.5625 10.25 C-7.20316406 10.77078125 -7.84382812 11.2915625 -8.50390625 11.828125 C-8.99761719 12.21484375 -9.49132812 12.6015625 -10 13 C-8.90499334 8.51047268 -5.51962971 0 0 0 Z " fill="#157347" transform="translate(674,433)"/>
<path d="M0 0 C3.375 -0.1875 3.375 -0.1875 7 0 C9.42479736 3.63719605 9.38662577 5.85703482 9.625 10.1875 C9.69976563 11.45980469 9.77453125 12.73210937 9.8515625 14.04296875 C9.90054688 15.01878906 9.94953125 15.99460937 10 17 C7.86413322 13.79619983 7.76867825 12.98060033 7.875 9.3125 C7.89304687 8.50425781 7.91109375 7.69601562 7.9296875 6.86328125 C7.95289063 6.24839844 7.97609375 5.63351562 8 5 C7.34 5 6.68 5 6 5 C6 4.01 6 3.02 6 2 C3.69 2 1.38 2 -1 2 C-0.67 1.34 -0.34 0.68 0 0 Z " fill="#157347" transform="translate(982,284)"/>
<path d="M0 0 C0 0.33 0 0.66 0 1 C-7.90611355 3.63537118 -15.76865163 3.17981101 -24 3 C-24 2.67 -24 2.34 -24 2 C-15.95072024 0.70098079 -8.16240568 -0.33853295 0 0 Z " fill="#157347" transform="translate(710,801)"/>
<path d="M0 0 C4.31392226 0.4793247 6.16569547 1.7457985 9 5 C7.625 6.5 7.625 6.5 6 8 C5.34 8 4.68 8 4 8 C4 7.34 4 6.68 4 6 C3.34 6 2.68 6 2 6 C1.34 4.02 0.68 2.04 0 0 Z " fill="#157347" transform="translate(377,449)"/>
<path d="M0 0 C0.66 0.33 1.32 0.66 2 1 C1.04637378 3.60597856 0.08732872 6.20973651 -0.875 8.8125 C-1.14441406 9.55048828 -1.41382813 10.28847656 -1.69140625 11.04882812 C-1.95566406 11.76103516 -2.21992187 12.47324219 -2.4921875 13.20703125 C-2.73308105 13.8616333 -2.97397461 14.51623535 -3.22216797 15.19067383 C-4 17 -4 17 -6 20 C-5.505 15.545 -5.505 15.545 -5 11 C-4.34 11 -3.68 11 -3 11 C-2.95101562 10.28972656 -2.90203125 9.57945312 -2.8515625 8.84765625 C-2.77679687 7.92855469 -2.70203125 7.00945313 -2.625 6.0625 C-2.55539062 5.14597656 -2.48578125 4.22945312 -2.4140625 3.28515625 C-2.27742187 2.53105469 -2.14078125 1.77695312 -2 1 C-1.34 0.67 -0.68 0.34 0 0 Z " fill="#157347" transform="translate(977,591)"/>
<path d="M0 0 C0.66 0.33 1.32 0.66 2 1 C0.02 5.29 -1.96 9.58 -4 14 C-4.66 14 -5.32 14 -6 14 C-6 14.99 -6 15.98 -6 17 C-6.66 16.67 -7.32 16.34 -8 16 C-7.67 15.01 -7.34 14.02 -7 13 C-6.34 13 -5.68 13 -5 13 C-4.87625 12.29875 -4.7525 11.5975 -4.625 10.875 C-3.96161655 7.82343613 -3.02788045 4.94659062 -2 2 C-1.34 2 -0.68 2 0 2 C0 1.34 0 0.68 0 0 Z " fill="#157347" transform="translate(962,626)"/>
<path d="M0 0 C1.12737713 3.38213139 1.06292002 4.64771379 0 8 C-1.29103643 9.3743291 -2.6256709 10.70896357 -4 12 C-5.23512079 14.13309192 -5.23512079 14.13309192 -6 16 C-6.33 15.34 -6.66 14.68 -7 14 C-6.22265625 11.8359375 -6.22265625 11.8359375 -5.0625 9.375 C-4.49208984 8.14910156 -4.49208984 8.14910156 -3.91015625 6.8984375 C-3.60980469 6.27195312 -3.30945313 5.64546875 -3 5 C-2.34 5 -1.68 5 -1 5 C-0.67 3.35 -0.34 1.7 0 0 Z " fill="#157347" transform="translate(698,712)"/>
<path d="M0 0 C0.66 0.33 1.32 0.66 2 1 C-1.06544056 4.94128072 -3.49152687 7.6879625 -8 10 C-8.763125 10.391875 -9.52625 10.78375 -10.3125 11.1875 C-10.869375 11.455625 -11.42625 11.72375 -12 12 C-10.38405168 9.95880212 -8.7143618 7.95927063 -7 6 C-6.34 6 -5.68 6 -5 6 C-5 5.34 -5 4.68 -5 4 C-3.37373596 2.61767557 -1.7074998 1.28062485 0 0 Z " fill="#157347" transform="translate(706,401)"/>
<path d="M0 0 C1.24546405 2.49092811 0.7767578 3.41080733 0 6 C-0.66 6 -1.32 6 -2 6 C-2.12375 6.763125 -2.2475 7.52625 -2.375 8.3125 C-3 11 -3 11 -5 14 C-5.74737188 8.02102497 -3.3231898 4.67620279 0 0 Z " fill="#157347" transform="translate(513,286)"/>
<path d="M0 0 C0.33 0.66 0.66 1.32 1 2 C-1.31 4.64 -3.62 7.28 -6 10 C-6.99 9.67 -7.98 9.34 -9 9 C-6.03 6.03 -3.06 3.06 0 0 Z " fill="#157347" transform="translate(548,249)"/>
<path d="M0 0 C0.99 0 1.98 0 3 0 C1.375 5.75 1.375 5.75 -2 8 C-1.34 6.35 -0.68 4.7 0 3 C-0.598125 3.350625 -1.19625 3.70125 -1.8125 4.0625 C-4 5 -4 5 -7 4 C-4.35261084 2.5393715 -3.10551666 2 0 2 C0 1.34 0 0.68 0 0 Z " fill="#157347" transform="translate(876,448)"/>
<path d="M0 0 C-1.28888029 2.8751945 -2.53266983 5.0071564 -5 7 C-7.1875 7.6875 -7.1875 7.6875 -9 8 C-8.34 6.68 -7.68 5.36 -7 4 C-6.34 4 -5.68 4 -5 4 C-5 3.34 -5 2.68 -5 2 C-2 0 -2 0 0 0 Z " fill="#157347" transform="translate(543,63)"/>
<path d="M0 0 C1.125 3.75 1.125 3.75 0 6 C-0.99 6.33 -1.98 6.66 -3 7 C-3.33 7.99 -3.66 8.98 -4 10 C-4.66 10 -5.32 10 -6 10 C-4.6302836 6.00499382 -2.74277578 3.19990508 0 0 Z " fill="#157347" transform="translate(651,459)"/>
<path d="M0 0 C0 3.20395416 -0.74335022 5.09399739 -2 8 C-2.66 8 -3.32 8 -4 8 C-4 8.66 -4 9.32 -4 10 C-4.66 9.67 -5.32 9.34 -6 9 C-5.34 7.35 -4.68 5.7 -4 4 C-3.34 4 -2.68 4 -2 4 C-1.34 2.68 -0.68 1.36 0 0 Z " fill="#157347" transform="translate(825,517)"/>
<path d="M0 0 C0.66 0.33 1.32 0.66 2 1 C1.071875 1.763125 0.14375 2.52625 -0.8125 3.3125 C-2.98276101 5.11848552 -5.05568065 6.9476629 -7 9 C-7.66 8.34 -8.32 7.68 -9 7 C-6.03 4.69 -3.06 2.38 0 0 Z " fill="#157347" transform="translate(737,377)"/>
<path d="M0 0 C0.33 0.66 0.66 1.32 1 2 C-0.98 4.31 -2.96 6.62 -5 9 C-5.66 8.67 -6.32 8.34 -7 8 C-4.69 5.36 -2.38 2.72 0 0 Z " fill="#157347" transform="translate(458,159)"/>
<path d="M0 0 C0.99 0 1.98 0 3 0 C2.40138258 2.35171131 1.73075648 4.6859378 1 7 C0.01 7.495 0.01 7.495 -1 8 C-1.125 2.25 -1.125 2.25 0 0 Z " fill="#157347" transform="translate(631,754)"/>
<path d="M0 0 C1 2 1 2 0.375 4.4375 C-1.27706844 7.51635481 -2.91798591 8.45899296 -6 10 C-5.1875 7.5625 -5.1875 7.5625 -4 5 C-3.01 4.67 -2.02 4.34 -1 4 C-0.26676204 1.98491642 -0.26676204 1.98491642 0 0 Z " fill="#157347" transform="translate(644,469)"/>
<path d="M0 0 C0.66 0.33 1.32 0.66 2 1 C-0.46153846 6.66153846 -0.46153846 6.66153846 -3.1875 8.375 C-3.785625 8.58125 -4.38375 8.7875 -5 9 C-3.7508258 5.54074837 -2.32472205 2.85306797 0 0 Z " fill="#157347" transform="translate(865,465)"/>
<path d="M0 0 C0.66 0.33 1.32 0.66 2 1 C0.2421875 1.9765625 -1.515625 2.953125 -3.2734375 3.9296875 C-5.1612614 5.00897274 -5.1612614 5.00897274 -7 7 C-7.99 6.34 -8.98 5.68 -10 5 C-8.38007835 4.13624104 -6.75388139 3.28424146 -5.125 2.4375 C-4.22007812 1.96183594 -3.31515625 1.48617188 -2.3828125 0.99609375 C-1.20332031 0.50302734 -1.20332031 0.50302734 0 0 Z " fill="#157347" transform="translate(805,338)"/>
<path d="M0 0 C1 2 1 2 0.25 4.9375 C-0.89726872 7.74830836 -1.69701628 9.1157406 -4 11 C-2.95902388 7.13351728 -1.96301592 3.50538557 0 0 Z " fill="#157347" transform="translate(675,761)"/>
<path d="M0 0 C0.99 0.33 1.98 0.66 3 1 C-0.65333143 3.63379708 -3.48521602 5.46884894 -8 6 C-5.63055987 3.38114512 -3.16266898 1.58133449 0 0 Z " fill="#157347" transform="translate(831,759)"/>
<path d="M0 0 C2.51699845 2.51699845 3.10964078 4.57554146 4 8 C3.625 10.375 3.625 10.375 3 12 C3 11.34 3 10.68 3 10 C2.34 10 1.68 10 1 10 C0.67 6.7 0.34 3.4 0 0 Z " fill="#157347" transform="translate(608,97)"/>
<path d="M0 0 C0 0.66 0 1.32 0 2 C-0.9590625 2.1546875 -0.9590625 2.1546875 -1.9375 2.3125 C-2.618125 2.539375 -3.29875 2.76625 -4 3 C-4.33 3.99 -4.66 4.98 -5 6 C-6.32 5.67 -7.64 5.34 -9 5 C-7.87926138 4.16094435 -6.75325453 3.32892169 -5.625 2.5 C-4.99851562 2.0359375 -4.37203125 1.571875 -3.7265625 1.09375 C-2 0 -2 0 0 0 Z " fill="#157347" transform="translate(748,371)"/>
<path d="M0 0 C-0.33 0.99 -0.66 1.98 -1 3 C-3.64 3.33 -6.28 3.66 -9 4 C-3.7826087 0 -3.7826087 0 0 0 Z " fill="#157347" transform="translate(795,344)"/>
<path d="M0 0 C2.31 0 4.62 0 7 0 C6.67 0.66 6.34 1.32 6 2 C3.35139573 2.59355614 0.70802678 2.74209269 -2 3 C-1.34 2.67 -0.68 2.34 0 2 C0 1.34 0 0.68 0 0 Z " fill="#157347" transform="translate(913,300)"/>
<path d="M0 0 C6.52307692 0.61538462 6.52307692 0.61538462 8.9375 2.5625 C9.288125 3.036875 9.63875 3.51125 10 4 C5.78087253 3.5205537 3.20336822 2.83374881 0 0 Z " fill="#157347" transform="translate(645,189)"/>
<path d="M0 0 C0.66 0.33 1.32 0.66 2 1 C-1.5 5.875 -1.5 5.875 -6 7 C-4.02 4.69 -2.04 2.38 0 0 Z " fill="#157347" transform="translate(741,163)"/>
<path d="M0 0 C6.4 -0.36923077 6.4 -0.36923077 9.4375 1.5 C9.953125 1.995 10.46875 2.49 11 3 C9.741875 2.87625 8.48375 2.7525 7.1875 2.625 C6.12595703 2.52058594 6.12595703 2.52058594 5.04296875 2.4140625 C3 2 3 2 0 0 Z " fill="#157347" transform="translate(503,791)"/>
<path d="M0 0 C0 3 0 3 0 3 Z M-4 3 C-3.01 3 -2.02 3 -1 3 C-1.33 3.99 -1.66 4.98 -2 6 C-4.0625 6.6875 -4.0625 6.6875 -6 7 C-5.34 5.68 -4.68 4.36 -4 3 Z " fill="#157347" transform="translate(658,452)"/>
<path d="M0 0 C2.4375 0.375 2.4375 0.375 5 1 C5.33 1.66 5.66 2.32 6 3 C5.01 3 4.02 3 3 3 C3.33 3.99 3.66 4.98 4 6 C3.34 6 2.68 6 2 6 C1.34 4.02 0.68 2.04 0 0 Z " fill="#157347" transform="translate(377,449)"/>
<path d="M0 0 C7.50769231 -0.36923077 7.50769231 -0.36923077 10 1.5 C10.495 2.2425 10.495 2.2425 11 3 C6.94393835 2.53199289 3.53411321 2.12046792 0 0 Z " fill="#157347" transform="translate(323,296)"/>
<path d="M0 0 C0.66 0.33 1.32 0.66 2 1 C0.1875 3.5 0.1875 3.5 -2 6 C-2.99 6 -3.98 6 -5 6 C-5 5.34 -5 4.68 -5 4 C-3.37373596 2.61767557 -1.7074998 1.28062485 0 0 Z " fill="#157347" transform="translate(537,259)"/>
</svg>
